<svg version="1.1" xmlns="http://www.w3.org/2000/svg" xmlns:xlink="http://www.w3.org/1999/xlink" width="574.5" height="366" viewBox="0,0,574.5,366"><g transform="translate(87.89999,3.39999)"><g data-paper-data="{&quot;isPaintingLayer&quot;:true}" fill-rule="nonzero" stroke-linecap="butt" stroke-linejoin="miter" stroke-miterlimit="10" stroke-dasharray="" stroke-dashoffset="0" style="mix-blend-mode: normal"><path d="M-2.39999,361.60001v-364h488v364z" fill="#000000" stroke="#000000" stroke-width="2"/><path d="M-87.89999,113.60001c0,-1.38071 1.11929,-2.5 2.5,-2.5c1.38071,0 2.5,1.11929 2.5,2.5c0,1.38071 -1.11929,2.5 -2.5,2.5c-1.38071,0 -2.5,-1.11929 -2.5,-2.5z" fill="#ff0000" stroke="none" stroke-width="0.5"/><path d="M65.2792,70.45211c-1.8521,1.6792 -3.5313,-0.17291 -3.5313,-0.17291l0.37308,-0.39122c-5.98453,-1.00835 -11.87256,-0.43768 -17.86967,-1.18711c-2.07086,-0.25879 -8.63918,-0.7881 -10.34993,-2.26656c-1.20395,-1.04048 -1.1794,-2.9559 -1.76909,-4.43385c0.05267,-1.45239 -0.40355,-3.0167 0.15802,-4.35716c1.61501,-3.85501 9.15888,-5.87977 12.90924,-6.51101c0.87997,-0.14811 1.82842,0.35411 2.676,0.07499c0.9619,-0.31677 1.58796,-1.27132 2.46964,-1.76955c1.50971,-0.85311 3.01688,-1.78136 4.68043,-2.27085c1.00272,-0.29504 2.84906,0.89705 3.13379,-0.10865c0.46038,-1.62608 -6.20312,-0.8826 -6.86487,-0.97696c-2.23277,-0.31837 -4.43919,-0.98676 -6.69454,-0.98127c-3.66658,0.00893 -7.33339,0 -11,0c0,0 -2.5,0 -2.5,-2.5c0,-2.5 2.5,-2.5 2.5,-2.5c4.65797,0 9.71148,-0.62189 14.30546,0.01873c1.3612,0.18982 2.6395,0.80527 4,1c3.34513,0.47878 5.85783,-1.32439 9.22672,1.56568c3.99712,3.42901 1.86393,7.27604 -1.57547,9.22529c-0.98152,0.55627 -2.29491,-0.17717 -3.38233,0.12342c-2.54201,0.70268 -4.35019,3.11883 -6.84992,3.95961c-1.9001,0.63909 -4.03555,0.33468 -5.93389,0.97898c-2.70232,0.91717 -6.65133,0.81282 -6.32285,4.22784c0.43506,2.95089 5.33243,2.23093 7.80376,2.53993c6.06133,0.75789 12.00612,0.21583 18.07149,1.21653l2.50914,1.96479c0,0 1.6792,1.8521 -0.17291,3.5313z" fill="#ff0000" stroke="none" stroke-width="0.5"/><path d="M75.48197,49.36394c2.23607,-1.11803 3.3541,1.11803 3.3541,1.11803l1.26393,3.11803c0,5.33333 0,10.66667 0,16c0,0 0,2.5 -2.5,2.5c-2.5,0 -2.5,-2.5 -2.5,-2.5c0,-5.33333 0,-10.66667 0,-16l-0.73607,-0.88197c0,0 -1.11803,-2.23607 1.11803,-3.3541z" fill="#ff0000" stroke="none" stroke-width="0.5"/><path d="M90.10001,49.60001c0,2.5 -2.5,2.5 -2.5,2.5l-4.22681,-0.32171c-2.3458,-3.33923 -4.64721,-6.52499 -7.54095,-9.41052c0,0 -1.76777,-1.76777 0,-3.53553c1.76777,-1.76777 3.53553,0 3.53553,0c2.61489,2.62164 4.93199,5.18587 6.45905,8.58948l1.77319,-0.32171c0,0 2.5,0 2.5,2.5z" fill="#ff0000" stroke="none" stroke-width="0.5"/><path d="M109.68013,75.21326c1.38675,2.08013 -0.69338,3.46688 -0.69338,3.46688l-2.39998,1.43736c-0.57584,2.08901 -0.33196,4.32113 -0.48677,6.48252c-0.03832,0.53496 -0.6415,1.02942 -0.47189,1.53822c0.28877,0.8663 1.91458,-0.13398 2.65757,-0.66485c0.72,-0.51445 1.11604,-1.41096 1.85255,-1.90148c3.62814,-2.41635 6.35347,-2.37898 8.38078,-6.47129c1.59078,-3.21113 2.41596,-6.02745 0.80979,-9.4558c-0.5459,-1.16521 -1.76552,-1.95489 -2.21789,-3.15949c-0.21068,-0.56102 -0.37049,-1.15114 -0.47857,-1.75597c-0.34782,0.501 -0.71553,0.98686 -1.09898,1.45562c-0.89983,1.10003 -1.29724,2.69087 -2.49323,3.45857c-2.50782,1.60975 -6.59428,1.60356 -9.44012,1.45646c-1.49356,-0.0772 -3.28736,0.45408 -4.46178,-0.47189c-2.42108,-1.90893 -2.01404,-5.48075 -2.03822,-8.02811c0,0 0,-2.5 2.5,-2.5c2.5,0 2.5,2.5 2.5,2.5c-0.01076,0.86651 -0.02394,1.733 -0.03228,2.59954c-0.0044,0.45743 -0.40034,1.14058 -0.00594,1.37235c0.4624,0.27173 1.0039,-0.42562 1.53822,-0.47189c1.10651,-0.09583 5.30074,0.35031 6.55988,-0.54354c0.80307,-0.57009 0.90307,-1.76332 1.50677,-2.54143c0.907,-1.16904 1.96015,-2.31773 2.43336,-3.71678v-2.69825c0,-1.38071 1.11929,-2.5 2.5,-2.5c0.99801,0 1.85943,0.58479 2.26029,1.43041l1.97578,3.95156l-0.0444,0.0222c0.06401,0.10612 0.126,0.21365 0.18579,0.32272c0.77094,1.40637 0.19323,3.24976 0.75563,4.75173c0.42838,1.14406 1.65183,1.85589 2.13812,2.97657c0.86462,1.99253 1.72895,6.1733 1.18369,8.51758c-0.56769,2.44069 -2.78893,7.31483 -4.6696,9.2773c-2.59135,2.70406 -4.3301,2.2804 -7.32351,4.27803c-3.26921,2.18169 -7.41069,6.25454 -11.48988,1.43367c-0.65546,-0.77464 -0.48778,-9.55927 -0.43961,-9.86223c0.22901,-1.44034 0.9873,-2.74469 1.48095,-4.11703l3.60002,-2.56264c0,0 2.08013,-1.38675 3.46688,0.69338z" fill="#ff0000" stroke="none" stroke-width="0.5"/><path d="M138.83224,82.83224c1.76777,-1.76777 3.53553,0 3.53553,0l1,1c0.66667,0.66667 1.39289,1.27867 2,2c0.33473,0.3977 0.30168,1.21113 0.80662,1.33464c0.5039,0.12326 0.89249,-0.52965 1.32724,-0.81267c1.53077,-0.99652 4.6428,-2.5099 4.60022,-4.85015c-0.03588,-1.97181 -1.79158,-3.53121 -2.94173,-5.13322c-1.51653,-2.11233 -3.15695,-4.13806 -4.58822,-6.30906c-0.92651,-1.40537 -1.68604,-2.93065 -2.28159,-4.50507c-0.22816,-0.60315 0.1103,-1.33953 -0.15208,-1.9286c-0.00332,-0.00746 -0.00695,-0.01408 -0.01087,-0.01993l-1.75959,1.75959c-0.45241,0.45241 -1.07741,0.73223 -1.76777,0.73223c-1.38071,0 -2.5,-1.11929 -2.5,-2.5v-3c0,0 0,-2.5 2.5,-2.5c0.54103,0 0.96497,0.11708 1.29716,0.30057c0.48894,-0.8639 1.76321,-0.86631 5.16461,1.17132c2.39188,1.43287 2.00535,5.25601 3.56633,7.56633c2.99451,4.43202 8.52127,8.64342 8.47005,14.55772c-0.04172,4.81671 -7.1301,11.26585 -12.07254,10.33718c-0.79757,-0.14986 -4.33427,-3.80624 -5.19338,-4.66536l-1,-1c0,0 -1.76777,-1.76777 0,-3.53553z" fill="#ff0000" stroke="none" stroke-width="0.5"/><path d="M161.80944,113.97171c-2.37171,-0.79057 -1.58114,-3.16228 -1.58114,-3.16228l0.91307,-2.66233c0.13051,-2.84354 1.21173,-5.57086 2.06999,-8.28492c0.82703,-2.6153 1.14396,-6.81137 2.08925,-9.24341c0.45078,-1.15975 1.49091,-2.00738 2.0536,-3.11716c1.40506,-2.77113 2.38313,-7.15974 2.76452,-10.20708c0.30587,-2.44396 0.31158,-4.94584 0,-7.38908c-0.30216,-2.36935 -1.17508,-4.39383 -1.11468,-6.61816c-0.02794,0.09086 -0.05914,0.18074 -0.09436,0.26941c-0.55026,1.38544 -1.4081,2.63183 -2,4c-0.47117,1.0891 -0.34976,2.51279 -1.18307,3.35762c-0.13526,0.13712 -0.27652,0.26654 -0.42291,0.38939l0.06405,0.06405l-2,2c-0.45241,0.45241 -1.07741,0.73223 -1.76777,0.73223c-1.38071,0 -2.5,-1.11929 -2.5,-2.5c0,-2.33333 0,-7.66667 0,-10c0,0 0,-2.5 2.5,-2.5c2.5,0 2.5,2.5 2.5,2.5c0,0.14467 0,0.28933 0,0.434c0.06869,-0.13297 0.13254,-0.26333 0.1903,-0.3907c1.30317,-2.8739 1.68363,-7.628 7.42773,-5.27936c1.65878,0.67824 1.89124,3.10316 2.34968,4.83561c0.34919,1.31959 -0.15603,2.74057 0.01355,4.095c0.17075,1.36372 0.83268,2.63585 1,4c0.71212,5.80572 -0.47048,11.46854 -2.08097,17.00443c-0.65233,2.24233 -2.24383,4.10992 -3.10091,6.28225c-1.09646,2.77907 -1.00896,5.9084 -1.91075,8.75659c-0.80018,2.52729 -1.82626,5.06617 -1.93001,7.71508l-1.08693,3.33767c0,0 -0.79057,2.37171 -3.16228,1.58114z" fill="#ff0000" stroke="none" stroke-width="0.5"/><path d="M240.60001,147.10001c-2.5,0 -2.5,-2.5 -2.5,-2.5l0.41987,-2.38675c3.50316,-5.1256 2.58013,-10.61764 2.58013,-16.61325c0,-3.53986 0.4229,-7.41554 -0.02513,-10.93273c-0.5361,-4.20855 -1.76004,-8.30527 -2.87517,-12.3683c-0.31344,-1.14204 -0.26264,-2.39961 -0.7752,-3.46722c-0.31205,-0.64997 -1.07326,-0.96351 -1.59227,-1.46398c-1.56264,-1.50684 -2.69726,-3.53479 -4.56001,-4.64951c-1.26164,-0.755 -2.80057,-0.89795 -4.18681,-1.38796c-6.00161,-2.12146 -12.07123,-3.58186 -18.18439,-5.33c-2.86927,-0.82051 -4.67627,-1.56901 -7.23768,-1.81576c-0.18951,0.13749 -0.37737,0.27592 -0.56335,0.41546c0,0 -0.64985,0.48739 -1.48652,0.53609c0.04065,8.17784 0.51416,16.43666 0.48651,24.46983c-0.01979,5.75069 -0.99999,11.19537 -0.99999,16.99408c0,0 0,2.5 -2.5,2.5c-2.5,0 -2.5,-2.5 -2.5,-2.5c0,-5.7938 0.99569,-11.27502 1.00001,-17.00592c0.00946,-12.56111 -1.09758,-25.66497 0.00628,-38.1713c0.87837,-9.95151 2.69621,-20.27013 5.00702,-29.97721c0.968,-3.9899 0.98669,-6.76341 0.98669,-10.84557v-1c0,0 0,-2.5 2.5,-2.5c2.5,0 2.5,2.5 2.5,2.5v1c0,4.41911 -0.10341,7.65972 -1.12296,12.00492c-2.25469,9.44617 -4.01481,19.48931 -4.88333,29.1723c-0.21716,2.42112 -0.34758,4.86511 -0.41719,7.32346c0.17585,0.00184 0.35065,0.00554 0.52447,0.01105c2.62731,-1.7792 5.43848,-3.4645 7.81404,-5.44508c1.14422,-0.95397 1.93482,-2.3242 3.1834,-3.13681c1.10598,-0.7198 5.51061,-2.32375 7.3497,-3.19778c4.03776,-1.91893 7.92887,-4.22778 12.02773,-6.01266c1.4127,-0.61517 3.01301,-0.84064 4.30826,-1.67519c2.33626,-1.5053 3.9788,-3.88142 5.96335,-5.82708c1.18271,-1.15954 2.86708,-1.95245 3.57703,-3.44888c0.5891,-1.24171 0.66667,-2.66667 1,-4l2.40773,-2.53602c0,0 1.76777,-1.76777 3.53553,0c1.76777,1.76777 0,3.53553 0,3.53553l-1.59227,1.46398c-1.07458,4.29831 -2.35328,5.54148 -5.42297,8.55112c-0.77816,0.76294 -6.54662,6.32569 -6.75188,6.45901c-1.50335,0.97648 -3.33791,1.31171 -4.97651,2.03872c-4.07068,1.80606 -7.94921,4.07714 -11.97227,5.98734c-0.90719,0.43074 -6.61223,2.77716 -6.6503,2.80222c-1.11824,0.73612 -1.78792,2.00636 -2.8166,2.86319c-1.16408,0.9696 -2.42784,1.87009 -3.72326,2.74538c2.21012,0.57892 4.41008,1.28331 6.77039,1.90249c8.06101,2.11467 17.09581,3.71052 23.13566,9.651c0.48261,0.47467 4.24593,4.22116 4.40773,4.53602c0.71536,1.39206 0.78165,3.03171 1.2248,4.53278c2.47459,8.38216 3.0997,16.02865 3.0997,24.69897c0,7.17396 0.66417,13.13828 -3.41987,19.38675l0.41987,-0.38675c0,0 0,2.5 -2.5,2.5z" fill="#ff0000" stroke="none" stroke-width="0.5"/><path d="M257.39058,65.2283c2.37171,0.79057 1.58114,3.16228 1.58114,3.16228l-1,3c-0.61992,1.78976 -0.90399,3.7158 -0.90399,5.60989c-3.22126,9.96381 -2.96772,20.10697 -2.96772,30.59954c0,12.33333 0,24.66667 0,37c0,0 0,2.5 -2.5,2.5c-2.5,0 -2.5,-2.5 -2.5,-2.5c0,-12.33333 0,-24.66667 0,-37c0,-5.21492 -0.80275,-11.22302 0.03228,-16.40046c0.16784,-1.04064 0.82049,-1.9613 1,-3c0.34059,-1.97079 -0.32782,-4.02705 0,-6c0.09076,-0.54625 1.70615,-5.15163 2,-6c0,-2.16114 0.4312,-4.33377 1.09601,-6.39011l1,-3c0,0 0.79057,-2.37171 3.16228,-1.58114z" fill="#ff0000" stroke="none" stroke-width="0.5"/><path d="M264.30469,48.01637c0.32329,0.64653 0.72707,1.30334 1.22868,1.99866c0.48474,0.67194 0.98688,1.86393 2.10994,1.27527c2.28592,-1.19818 1.61314,-6.32759 1.48899,-8.28985c-0.03494,-0.55224 -0.19603,-1.08921 -0.30005,-1.63269c-0.03408,-0.17804 -0.11605,-0.71296 -0.1142,-0.5317c0.01881,1.8463 -1.02236,3.60866 -2.03791,5.15068l-1.31236,1.38102c0,0 -0.42344,0.42344 -1.06309,0.6486zM263.10323,42.37826c0.4362,-0.61352 0.87446,-1.22574 1.25099,-1.87663c0.77658,-1.34248 0.65634,-3.64755 2.12775,-4.13769c5.25421,-1.75022 6.81126,2.36258 7.58575,5.83561c0.91701,4.11211 0.2265,11.95462 -4.51101,13.71015c-8.41385,3.11785 -11.42458,-8.6401 -11.45671,-14.3097c0,0 0,-2.5 2.5,-2.5c2.5,0 2.5,2.5 2.5,2.5c-0.00185,0.26665 -0.00096,0.52577 0.00323,0.77826z" fill="#ff0000" stroke="none" stroke-width="0.5"/><path d="M315.97171,116.80944c0.79057,2.37171 -1.58114,3.16228 -1.58114,3.16228l-3,1c-6.842,2.23968 -14.63399,2.12571 -21.79057,2.12829c-3.62772,0 -10.35947,1.3947 -13.02811,-2.03822c-0.9362,-1.20432 -0.44166,-3.02685 -0.47027,-4.55199c-0.08051,-4.29163 0.68841,-4.64518 1.00466,-9.08701c0.12122,-1.70257 -0.16306,-3.4227 0.01152,-5.12063c0.46217,-4.49503 2.47794,-8.88114 3.23495,-13.33454c2.15625,-12.68495 1.81384,-26.64087 9.16712,-37.75436c0,0 1.38675,-2.08013 3.46688,-0.69338c2.08013,1.38675 0.69338,3.46688 0.69338,3.46688c-6.94106,10.32152 -6.38783,23.99267 -8.39808,35.81876c-0.01836,0.10799 -2.34871,9.67409 -2.40144,9.88862c-1.05508,4.29298 -1.00916,8.70926 -1.50202,13.12271c-0.14367,1.2865 -0.09944,2.59156 -0.28021,3.87337c-0.07087,0.50251 -0.7394,1.01777 -0.47027,1.44801c0.2426,0.38782 0.91491,-0.00301 1.37235,-0.00594c2.53315,-0.01621 5.06634,-0.03228 7.59954,-0.03228c6.55669,0.00246 13.95612,0.25838 20.20943,-1.87171l3,-1c0,0 2.37171,-0.79057 3.16228,1.58114z" fill="#ff0000" stroke="none" stroke-width="0.5"/><path d="M392.12802,113.16041c0.27439,-2.0604 2.47199,-2.0604 2.47199,-2.0604h5c1.38071,0 2.5,1.11929 2.5,2.5c0,1.1246 -0.74256,2.07576 -1.76412,2.38994l-2.94531,0.98177l-0.00598,-0.01795l-0.04147,0.03324c-7.36625,2.12632 -14.99135,2.81714 -22.64718,3.11116c-6.38808,0.24533 -12.55205,-0.5765 -18.79048,0.98311c-2.76848,0.00977 -5.53931,0.1327 -8.30546,0.01873c-1.39552,-0.0575 -2.98594,0.42933 -4.17964,-0.29581c-4.82651,-2.93198 -5.37869,-12.27654 -6.34018,-17.0006c-1.00934,-4.95916 -2.55071,-9.92867 -2.97166,-14.99739c-0.62552,-7.53199 -0.13267,-15.4292 1.33237,-22.74396c0.83596,-4.17383 0.71618,-7.92383 1.73376,-12.06858c0,0 0.60634,-2.42536 3.0317,-1.81902c2.42536,0.60634 1.81902,3.0317 1.81902,3.0317c-1.03149,4.04158 -0.86583,7.70405 -1.68046,11.83091c-1.35766,6.87783 -1.83773,14.26966 -1.25342,21.35654c0.40105,4.86421 1.92016,9.65425 2.88828,14.41277c0.61662,3.03081 1.12339,6.09525 2.00974,9.05842c0.04754,0.15893 1.22942,4.20542 1.79014,4.53083c0.53169,0.30856 1.20676,-0.25816 1.82036,-0.29581c2.56004,-0.1571 5.12971,0.0085 7.69454,0.01873c6.37657,-1.59414 12.68852,-0.76645 19.20952,-1.01689c5.918,-0.22728 11.85245,-0.67272 17.62396,-1.94144z" fill="#ff0000" stroke="none" stroke-width="0.5"/><path d="M457.83224,130.36777c-1.76777,-1.76777 0,-3.53553 0,-3.53553l3.14291,-3.13219c1.18368,-0.85466 4.66594,-3.08397 5.18236,-4.63312c0.25515,-0.76539 -0.3322,-1.61582 -0.76627,-2.29589c-1.53627,-2.40692 -3.60186,-4.46869 -4.98274,-6.96801c-0.76494,-1.38451 -1.57236,-2.76171 -2.11818,-4.24631c-0.22253,-0.60525 0.27015,-1.44119 -0.15208,-1.9286c-0.26621,-0.30731 -0.75469,0.30337 -1.13777,0.43961c-1.79816,0.63952 -3.65923,1.11684 -5.53753,1.45502c-0.15987,0.02878 -0.31987,0.05792 -0.47997,0.08738c-0.43578,1.13255 -0.81661,2.14432 -0.99352,2.72515c-0.41395,1.35906 -0.53511,2.80593 -1.04472,4.13209c-0.64307,1.67346 -1.52531,3.24784 -2.39387,4.81615c-1.48083,2.67382 -4.54118,7.94795 -7.63651,9.44311c-1.56504,0.75598 -3.42083,1.8383 -5.05975,1.25966c-1.80028,-0.63561 -2.2256,-3.16543 -3.71636,-4.35818c-0.92089,-0.73679 -2.20399,-0.84023 -3.30599,-1.26034c-0.45295,-1.15115 -0.64881,-2.44046 -1.35886,-3.45344c-1.03744,-1.48004 -2.6734,-3.06032 -3.91361,-4.75611c-2.37193,-0.24691 -4.50837,-2.33802 -5.8484,-3.92021c-5.50208,-6.49638 -5.81724,-14.44139 -8.26793,-22.19077c-5.12343,-0.37505 -10.80967,-2.00181 -13.15314,-6.49053c-0.23834,-0.45652 -0.1903,-6.04353 -0.1903,-6.95671c0,0 0,-2.5 2.5,-2.5c2.5,0 2.5,2.5 2.5,2.5c0,1.68229 -0.88423,3.51078 -0.1903,5.04329c1.01329,2.23782 4.31746,2.94822 7.45997,3.21223c-0.45252,-3.98651 0.09331,-7.48418 2.08657,-11.62334c0.9151,-1.90028 0.97615,-4.54927 2.74219,-5.70235c3.38724,-2.2116 8.24982,-0.31392 9.71127,3.11346c0.64854,1.52095 0.17092,3.30337 0.1903,4.95671c0.02178,1.85813 0.33236,3.75952 -0.06688,5.57438c-0.34874,1.58532 -1.43324,2.91314 -2.12342,4.38233c-0.6337,1.34895 -0.58212,3.28465 -1.84792,4.0714c-1.26595,0.78684 -2.88608,0.54768 -4.43096,0.47875c1.25543,5.05212 1.66649,10.92935 4.18364,15.33288c0.73156,1.2798 1.74324,2.37928 2.67419,3.52226c0.01451,0.01781 0.37393,0.45856 0.83756,0.94041c0.36188,-0.75709 0.94731,-1.53364 1.81203,-2.33051c0.91213,-0.84056 2.45194,-0.19444 3.70186,-0.36961c0.25614,-0.40803 0.52386,-0.80969 0.82656,-1.18726c2.18418,-2.72443 5.0118,-5.17934 7.28917,-7.83829l2.74604,-3.20372c0,0 1.62698,-1.89814 3.52512,-0.27116c1.89814,1.62698 0.27116,3.52512 0.27116,3.52512l-2.74604,3.20372c-1.08848,1.26897 -2.31082,2.4952 -3.5263,3.72829c0.59727,0.01383 1.19385,0.01627 1.78495,-0.03881c3.67754,-0.34266 7.61282,-0.91356 11.4163,-1.67143c0.30569,-0.7977 0.56111,-1.6092 0.71107,-2.45044c1.32354,-7.42476 -1.81231,-14.88386 -3.00585,-21.99786c-0.69222,-4.12595 -0.77812,-6.33709 -2.76835,-10.28242c0,0 -1.11803,-2.23607 1.11803,-3.3541c2.23607,-1.11803 3.3541,1.11803 3.3541,1.11803c1.93314,3.89688 2.5902,4.45745 3.2452,8.81258c0.14402,0.95758 -0.1716,1.94964 -0.01355,2.905c1.27918,7.7321 4.41691,15.59953 2.99372,23.67117c-0.01439,0.0816 -0.03899,0.18419 -0.0725,0.30506c2.50287,-0.65606 5.35233,-2.43279 8.07284,-0.60388c1.23687,0.8315 1.20667,2.72603 1.84792,4.0714c0.60222,1.26348 1.20648,2.52773 1.88182,3.75369c1.98936,3.61134 7.38156,8.01273 6.25099,12.7361c-0.50017,2.08964 -2.37913,3.60148 -3.83854,5.17846c-0.83691,0.90434 -1.98607,1.45895 -2.97911,2.18842l-2.85709,2.86781c0,0 -1.76777,1.76777 -3.53553,0zM445.25265,106.729c-2.923,0.5723 -5.86131,1.10285 -8.7822,1.37001c-1.56795,0.14342 -3.18111,-0.22841 -4.72257,0.0924c-0.94149,0.19595 -1.80087,0.66378 -2.67186,1.09379c-0.8456,1.3384 -1.56002,2.52919 -2.88468,3.44905c1.55053,1.92036 3.57495,3.70891 4.17644,6.09799c0.898,0.24655 1.995,0.12437 2.69401,0.73966c1.07555,0.94673 1.2186,2.68329 2.28364,3.64182c0.29651,0.26686 0.65208,-0.4645 0.94025,-0.74034c0.53611,-0.51317 1.01397,-1.08395 1.52641,-1.62076c3.9208,-4.10728 5.77715,-8.66323 7.39849,-13.98789c0.0138,-0.04531 0.02783,-0.09055 0.04208,-0.13573zM411.25243,83.07829c0.12137,0.00653 0.23739,0.0137 0.34757,0.02171c0.85831,0.0624 1.78147,0.88165 2.53822,0.47189c0.56707,-0.30705 -0.06944,-1.32298 0.15208,-1.9286c0.46665,-1.27581 1.57838,-2.29233 1.87658,-3.61767c0.32386,-1.43939 -0.09125,-2.95044 -0.06688,-4.42562c0.01052,-0.63641 0.96867,-3.13818 -0.45671,-3.6903c-2.78579,-1.07908 -1.6765,0.70537 -2.61344,3.34288c-0.62462,1.75834 -1.72466,2.82583 -1.96214,4.74787c-0.29742,2.40719 -0.17618,3.59613 0.18471,5.07783z" fill="#ff0000" stroke="none" stroke-width="0.5"/><path d="M148.60001,335.10001c-2.5,0 -2.5,-2.5 -2.5,-2.5l0.10727,-3.72446c1.6507,-2.59407 3.45801,-5.57466 3.93191,-8.71643c0.22037,-1.46097 -0.16328,-2.98736 0.15706,-4.42971c0.06824,-0.30725 0.16452,-0.60581 0.27817,-0.899c-2.04094,1.13232 -3.29379,-0.22916 -5.74218,-2.46264c-0.93331,-0.85139 -2.06901,-1.63961 -2.54193,-2.81106c-0.49431,-1.22441 -0.12687,-2.63781 -0.1903,-3.95671c0,0 0,-2.5 2.5,-2.5c2.5,0 2.5,2.5 2.5,2.5c-0.06343,0.6811 -0.44008,1.40648 -0.1903,2.04329c0.22899,0.58382 1.07101,0.69551 1.45807,1.18894c0.28113,0.35839 0.03946,1.1589 0.47858,1.27993c0.38173,0.10522 0.58794,-0.57564 0.71012,-0.95229c0.37548,-1.15751 0.50484,-2.38084 0.75725,-3.57126l0.33276,-0.29096l-0.1266,-0.0844l1.97849,-2.96774c0.44514,-0.68925 1.2201,-1.14551 2.10163,-1.14551c1.38071,0 2.5,1.11929 2.5,2.5v4c0.24163,1.42122 0.28722,2.87989 -0.04511,4.47277c-0.34315,1.6447 -1.50037,3.04253 -1.86504,4.6826c-0.3102,1.39508 0.09613,2.87422 -0.12903,4.28552c-0.53518,3.35445 -2.1506,6.56619 -4.06809,9.28357l0.10727,2.27554c0,0 0,2.5 -2.5,2.5z" fill="#ff0000" stroke="none" stroke-width="0.5"/><path d="M167.83224,296.83224c1.76777,-1.76777 3.53553,0 3.53553,0l2,2c0.67587,0.67587 4.33886,4.27191 4.54193,4.81106c1.24779,3.31282 -0.85622,10.48004 -4.13005,12.1609c-3.39164,1.74133 -6.99441,-0.16348 -8.48934,-3.24748c-0.57596,-1.18819 -0.12687,-2.63781 -0.1903,-3.95671c0,0 0,-2.5 2.5,-2.5c2.5,0 2.5,2.5 2.5,2.5c-0.06343,0.6811 -0.30479,1.3689 -0.1903,2.04329c0.04785,0.28189 1.10899,1.15222 1.51066,0.75252c0.8434,-0.83926 2.42521,-4.62962 1.86995,-5.8391c-0.65421,-1.425 -2.34933,-2.0802 -3.45807,-3.18894l-2,-2c0,0 -1.76777,-1.76777 0,-3.53553z" fill="#ff0000" stroke="none" stroke-width="0.5"/><path d="M199.60001,287.10001c2.5,0 2.5,2.5 2.5,2.5l-0.12829,2.79057c-0.74737,2.19896 -2.24024,4.08476 -3.07658,6.25145c-0.95737,2.48024 0.03801,5.46097 -0.98543,7.91469c-0.48631,1.16595 -1.64864,1.91777 -2.54193,2.81106c-1.22632,1.22632 -2.21602,2.86108 -3.81106,3.54193c-3.11461,1.32949 -7.42105,-0.4367 -9.1609,-3.13005c-0.36641,-0.56722 -0.29581,-6.08353 -0.29581,-7.17964c0,0 0,-2.5 2.5,-2.5c2.5,0 2.5,2.5 2.5,2.5c0,1 0.06125,2.00188 0,3c-0.03765,0.61359 -0.55713,1.26392 -0.29581,1.82036c1.42498,3.03423 4.55923,-1.11931 5.02805,-1.58812c0.44344,-0.44344 1.24151,-0.6004 1.45807,-1.18894c0.26434,-0.71843 -0.27208,-1.5299 -0.17813,-2.28964c0.23394,-1.89195 0.4985,-3.81131 1.15387,-5.60148c0.76091,-2.07847 2.27746,-3.83797 2.96226,-5.94275l-0.12829,-1.20943c0,0 0,-2.5 2.5,-2.5z" fill="#ff0000" stroke="none" stroke-width="0.5"/><path d="M273.93933,306.48202c-0.24045,0.71966 -0.84073,1.61798 -2.33933,1.61798c-2.5,0 -2.5,-2.5 -2.5,-2.5l1.70943,-3.37171c4.09764,-1.36588 8.86839,-2.2401 12.79086,-3.9197c1.15088,-0.49281 1.97976,-1.60269 3.15189,-2.04255c1.55651,-0.58411 3.33327,-0.39519 4.89111,-0.97573c2.59778,-0.96808 4.62365,-3.18675 7.24921,-4.07671c1.57845,-0.53503 3.32176,-0.45353 4.9029,-0.98058c1.44445,-0.48148 2.65203,-1.5398 4.0971,-2.01942c2.81603,-0.93464 5.97545,-0.71601 8.69611,-1.89988c1.07306,-0.46693 1.86463,-1.43952 2.91301,-1.9595c0.76654,-0.38019 4.68169,-1.54477 5.78405,-1.88084c3.99368,-3.99368 8.5811,-5.63419 13.88904,-7.39067c2.72817,-0.9028 4.97762,-2.95775 7.70082,-3.87543c0.99513,-0.33534 2.13717,0.23665 3.15008,-0.04039c2.5439,-0.69579 4.32039,-3.21329 6.84992,-3.95961c1.22241,-0.36066 2.61087,0.45463 3.82303,0.0609c0.86608,-0.28131 1.14367,-1.47629 1.93291,-1.93051c1.42764,-0.82161 3.1974,-0.9487 4.59228,-1.82477c1.90725,-1.19786 3.12696,-3.25489 4.85654,-4.69747c4.18085,-3.48712 7.88168,-7.14319 11.75192,-10.98319c0.76407,-0.7581 1.41042,-1.66329 2.30599,-2.26034c1.13246,-0.75497 2.7316,-0.77725 3.69401,-1.73966c0.96241,-0.96241 1.15977,-2.46267 1.73966,-3.69401c2.02981,-2.05823 4.21813,-3.96792 6.11583,-6.14856c0.71639,-0.82321 1.08842,-1.94672 1.92362,-2.6491c1.32937,-1.11797 3.07864,-1.6452 4.45013,-2.71107c6.50138,-5.05264 11.38772,-12.17507 18.07675,-17.05759c3.2726,-2.38876 4.79142,-1.85597 8,-4c2.4295,-1.62344 4.58138,-4.06891 6.8768,-5.90525c2.99822,-2.39858 6.20836,-4.58213 8.65162,-7.65162c1.43094,-1.7977 2.72368,-3.72368 4.34838,-5.34838c0.86607,-0.52804 1.96971,-0.78796 2.59821,-1.58413c0.60435,-0.76558 0.35675,-1.96141 0.86014,-2.79684c1.05976,-1.75879 2.97748,-2.94003 3.88084,-4.78405c0.49934,-1.0193 0.53662,-2.2418 1.11916,-3.21595c0.48388,-0.80916 1.51364,-1.19232 2,-2c1.21003,-2.00943 1.71669,-4.44809 3.19327,-6.27064c0.44601,-0.55051 1.34945,-0.71843 1.62366,-1.37174c0.26473,-0.63074 -0.16451,-1.35973 -0.1903,-2.04329c-0.07541,-1.99858 0,-4 0,-6c0,-6.09608 0.1231,-12.45028 -1.87171,-18.20943c0,0 -0.79057,-2.37171 1.58114,-3.16228c2.37171,-0.79057 3.16228,1.58114 3.16228,1.58114c2.37125,7.33462 2.12829,15.09853 2.12829,22.79057c0,1.03053 0.04804,6.34522 -0.1903,6.95671c-0.42893,1.10045 -1.64397,1.70166 -2.37634,2.62826c-1.3187,1.66842 -1.71526,3.90418 -2.80673,5.72936c-0.48388,0.80916 -1.51364,1.19232 -2,2c-0.50212,0.83385 -0.43914,1.91668 -0.88084,2.78405c-1.00534,1.9742 -2.98299,3.31403 -4.11916,5.21595c-0.58121,0.97293 -0.42746,2.32176 -1.13986,3.20316c-0.87426,1.08165 -2.26786,1.61058 -3.40179,2.41587c-1.39387,1.39387 -2.4167,3.11514 -3.65162,4.65162c-2.66341,3.31379 -6.09308,5.74414 -9.34838,8.34838c-2.3721,1.89768 -4.60415,4.41873 -7.1232,6.09475c-2.48221,1.65152 -5.6033,2.22666 -8,4c-6.59741,4.88149 -11.4754,11.91089 -17.92325,16.94241c-1.25859,0.98213 -2.89315,1.41817 -4.1248,2.43389c-0.68623,0.56591 -0.91907,1.53363 -1.50145,2.20594c-0.49152,0.56742 -5.15223,5.13169 -5.88417,5.85144c-0.75345,1.43533 -1.11407,3.15972 -2.26034,4.30599c-1.69967,1.69967 -4.30773,2.29296 -6,4c-3.93095,3.96526 -7.77179,7.69615 -12.05676,11.26376c-1.88277,1.56757 -3.27341,3.73162 -5.33478,5.05558c-1.41874,0.91122 -3.22624,1.0565 -4.69248,1.88914c-1.05669,0.60007 -1.63437,1.95698 -2.78232,2.35559c-1.31543,0.45676 -2.83447,-0.30882 -4.17697,0.0609c-2.63931,0.72685 -4.52523,3.26293 -7.15008,4.04039c-0.91095,0.26982 -1.94741,-0.33721 -2.84992,-0.04039c-0.99472,0.32715 -1.62631,1.34696 -2.56059,1.81983c-1.61011,0.81493 -3.31257,1.44438 -5.02336,2.01865c-5.00683,1.68068 -9.05047,3.1197 -12.82619,6.89542c-2.06403,0.7293 -4.26136,1.13342 -6.21595,2.11916c-1.10134,0.55543 -1.95096,1.56 -3.08699,2.0405c-4.27146,1.80665 -4.72131,0.59183 -9.10969,2.06128c-1.44379,0.48345 -2.65265,1.53794 -4.0971,2.01942c-1.58114,0.52705 -3.31884,0.46239 -4.9029,0.98058c-2.53314,0.82865 -4.45465,3.01254 -6.94498,3.96213c-1.56119,0.5953 -3.3501,0.39913 -4.91469,0.98543c-1.1358,0.42562 -1.92515,1.52387 -3.0423,1.99629c-3.58957,1.51793 -7.80668,2.42901 -11.66039,3.59061z" fill="#ff0000" stroke="none" stroke-width="0.5"/><path d="M320.09473,317.43762c0.16238,2.49472 -2.33234,2.6571 -2.33234,2.6571l-2.97901,0.18982c-9.39574,1.70569 -18.67079,1.81546 -28.18337,1.81546c-10.97621,0 -21.5256,-0.24812 -32.41813,-1.70029c-4.97329,-0.66303 -10.06749,-0.69217 -14.98233,-1.33199c-2.00942,-0.26159 -4.1731,-1.08189 -6.25754,-2.05528l-3.89761,-0.9744c-1.1133,-0.25265 -1.9444,-1.24829 -1.9444,-2.43804c0,-0.88153 0.45626,-1.6565 1.14551,-2.10163l2.92623,-1.95082c5.11164,-3.78317 10.77886,-6.09702 15.91078,-9.93431c3.86883,-2.89284 7.14513,-6.91986 10.93251,-9.94659c0.89313,-0.71376 2.05909,-1.07376 2.86693,-1.88278c1.88084,-1.88358 3.04582,-4.46531 5.13307,-6.11722c0.79539,-0.62949 1.94896,-0.80478 2.59821,-1.58413c0.50241,-0.60309 0.41004,-1.51539 0.61506,-2.27309c0,0 0.79057,-2.37171 3.16228,-1.58114c2.37171,0.79057 1.58114,3.16228 1.58114,3.16228c-0.46165,1.2423 -0.57033,2.68152 -1.38494,3.72691c-1.34306,1.72354 -3.70529,2.43696 -5.09813,4.12052c-1.11446,1.34707 -1.93354,2.9427 -3.1706,4.17813c-3.26946,3.26514 -7.59691,5.84143 -11.03219,9.02992c-1.08994,1.01164 -1.97615,2.25188 -3.16836,3.14071c-4.66385,3.47705 -9.82087,5.69869 -14.51869,8.93071c1.46386,0.51935 3.46638,1.50356 4.40166,1.6148c1.57728,0.1876 3.18014,-0.13108 4.76511,-0.02679c4.99842,0.32888 10.03314,1.3869 15.00651,1.99548c8.96721,1.0973 17.80383,0.99903 26.82793,0.99903c9.31522,0 18.37277,-0.11398 27.57426,-1.77822l3.26336,-0.2165c0,0 2.49472,-0.16238 2.6571,2.33234z" fill="#ff0000" stroke="none" stroke-width="0.5"/></g></g></svg>