<svg version="1.1" xmlns="http://www.w3.org/2000/svg" xmlns:xlink="http://www.w3.org/1999/xlink" width="55" height="51.25" viewBox="0,0,55,51.25"><g transform="translate(-232.125,-153.325)"><g data-paper-data="{&quot;isPaintingLayer&quot;:true}" fill-rule="nonzero" stroke="none" stroke-width="0" stroke-linecap="butt" stroke-linejoin="miter" stroke-miterlimit="10" stroke-dasharray="" stroke-dashoffset="0" style="mix-blend-mode: normal"><path d="" fill="#ffffff"/><path d="" fill="#ffffff"/><path d="" fill="#ffffff"/><path d="" fill="#ffffff"/><path d="" fill="#ffffff"/><path d="" fill="#ffffff"/><path d="" fill="#ffffff"/><path d="" fill="#ffffff"/><path d="" fill="#ffffff"/><path d="" fill="#ffffff"/><path d="" fill="#ffffff"/><path d="" fill="#ffffff"/><path d="" fill="#ffffff"/><path d="" fill="#ffffff"/><path d="" fill="#ffffff"/><path d="" fill="#ffffff"/><path d="" fill="#ffffff"/><path d="" fill="#ffffff"/><g fill="#ffffff"><path d="M232.125,182.075v-6.75h7.5v6.75z"/><path d="M236.625,187.075v-17.5h8.5v17.5z"/><path d="M243.125,193.325v-31h12.5v31z"/><path d="M260.375,158.575v-5.25h16v5.25z"/><path d="M273.875,162.575v-6.25h5.5v6.25z"/><path d="M278.125,194.575v-34.75h5.75v34.75z"/><path d="M274.625,199.825v-6.75h4.75v6.75z"/><path d="M261.125,202.825v-5h15.25v5z"/><path d="M258.875,167.325v-4.75h7.5v4.75z"/><path d="M265.125,186.325v-21h5.75v21z"/><path d="M258.875,191.325v-6.25h7.25v6.25z"/></g><path d="M235.375,183.825v-6.75h7.5v6.75z" fill="#ff0000"/><path d="M239.875,188.825v-17.5h8.5v17.5z" fill="#ff0000"/><path d="M246.375,195.075v-31h12.5v31z" fill="#ff0000"/><path d="M263.625,160.325v-5.25h16v5.25z" fill="#ff0000"/><path d="M277.125,164.325v-6.25h5.5v6.25z" fill="#ff0000"/><path d="M281.375,196.325v-34.75h5.75v34.75z" fill="#ff0000"/><path d="M277.875,201.575v-6.75h4.75v6.75z" fill="#ff0000"/><path d="M264.375,204.575v-5h15.25v5z" fill="#ff0000"/><path d="M262.125,169.075v-4.75h7.5v4.75z" fill="#ff0000"/><path d="M268.375,188.075v-21h5.75v21z" fill="#ff0000"/><path d="M262.125,193.075v-6.25h7.25v6.25z" fill="#ff0000"/></g></g></svg>