<svg version="1.1" xmlns="http://www.w3.org/2000/svg" xmlns:xlink="http://www.w3.org/1999/xlink" width="525.53115" height="410.48699" viewBox="0,0,525.53115,410.48699"><g transform="translate(23.75,32.95)"><g data-paper-data="{&quot;isPaintingLayer&quot;:true}" fill="#000000" fill-rule="nonzero" stroke="none" stroke-width="0.5" stroke-linecap="butt" stroke-linejoin="miter" stroke-miterlimit="10" stroke-dasharray="" stroke-dashoffset="0" style="mix-blend-mode: normal"><path d="M-15.32489,11.86255c-2.19888,-3.16936 -5.42545,-10.05054 1.45573,-16.93171c4.22397,-4.22397 8.44794,-4.63929 11.81337,-3.82159c2.62399,-1.98408 5.34219,-2.66364 5.34219,-2.66364c1.86489,-0.43211 3.69763,-1.03987 5.59467,-1.29634c1.24905,-0.16886 2.54119,0.255 3.78114,0.0288c1.99878,-0.36463 3.84641,-1.33765 5.829,-1.78193c1.05924,-0.23737 23.05588,-4.20182 23.81886,-4.2926c1.9477,-0.23173 3.93091,0.18845 5.8843,0.01094c1.6927,-0.15382 3.30399,-0.88854 5,-1c3.22197,-0.21175 6.46578,0.26194 9.6867,0.03479c1.37096,-0.09668 2.63892,-0.80936 4,-1c1.89779,-0.26581 3.96967,0.54715 5.7464,-0.17084c0.95436,-0.38567 1.5479,-1.43564 2.5122,-1.79575c3.25514,-1.21562 6.81171,-1.38302 10.23792,-1.96159c1.03938,-0.17552 1.9567,-0.84958 3,-1c6.20022,-0.89395 12.86894,-0.17109 19.12241,-0.17109c10.60399,0.35418 21.27828,3.75447 31.07056,8.0086c3.65507,1.5879 11.08062,4.89807 13.60968,8.52306c0.00567,-0.0033 0.01366,-0.0045 0.0243,-0.00325c2.24386,0.2624 4.36165,1.23831 6.60109,1.53608c5.28362,0.70253 11.96945,0.31129 17.07545,-0.96521c4.03025,0.11594 7.0071,-1.60304 11.3133,-2.03479c5.27685,-0.52908 10.744,0.55306 16,0c4.52024,-0.47564 8.94905,-1.7096 13.4823,-2.03888c9.43325,-0.68521 19.18054,-0.23367 28.44225,1.07367c5.72288,0.80782 11.90656,-0.63183 17.6867,-0.03479c4.792,0.49497 9.85827,1.28665 14.63366,1.96885c10.86788,-0.08921 21.62298,-0.27508 32.36634,1.03115c5.56047,0.67607 11.40348,-0.57807 17,0c1.69068,0.17463 3.31668,0.76476 5,1c4.48355,0.62656 9.29546,-0.63879 13.81679,0.10661c3.03024,0.49957 6.04714,2.47785 9,3c1.93008,0.34129 3.91756,-0.17109 5.87759,-0.17109c7.73656,0.11604 16.08538,2.27002 23.87759,1.17109c1.04376,-0.1472 1.95449,-0.86578 3,-1c1.34577,-0.17276 8.07079,-0.19432 10.12241,-0.17109c0.86538,0.0098 1.8545,0.60727 2.59175,0.154c3.29644,-2.02671 5.98029,-5.01698 9.58684,-6.80667c1.50628,-0.74747 3.51981,-0.34688 4.85547,-1.36845c1.32161,-1.01082 2.66956,-2.1179 4.20733,-2.73377c2.36277,-3.46285 3.7112,-4.65536 6.38944,-7.36427c0.63609,-0.60876 1.27219,-1.21753 1.90828,-1.82629l1.32222,-1.98333c2.35922,-3.65304 6.46654,-6.07122 11.13866,-6.07122c7.31777,0 13.25,5.93223 13.25,13.25c0,2.22543 -0.54864,4.32273 -1.51805,6.16399l-0.95632,1.91264c1.17413,0.66958 2.06302,1.87059 3.1903,2.65225c0.14266,0.09892 -0.43455,-0.46308 -0.2614,-0.45047c2.53328,0.18452 5.07504,0.27035 7.60109,0.53608c2.39613,0.25206 4.75256,0.81646 7.09523,1.3794c1.62947,0.39155 3.05159,1.58693 4.72156,1.72721c1.95315,0.16407 3.91756,-0.17109 5.87759,-0.17109h3c7.31777,0 13.25,5.93223 13.25,13.25c0,3.65889 -1.48306,6.97139 -3.88084,9.36917l-0.3628,0.3628c-0.17706,0.61164 -0.36465,1.22032 -0.56481,1.82547c-0.98883,2.98962 -2.84546,5.30638 -3.71996,8.1471c-0.28036,0.91073 -0.83847,3.99826 -1.97888,6.39804c0.41551,0.67607 0.80124,1.37061 1.15997,2.07602c0.28583,0.56206 0.04205,1.31595 0.36845,1.85547c0.6622,1.09456 2.03693,1.71452 2.51035,2.90298c1.00788,2.53016 1.07359,5.34597 1.81905,7.96547c0.53252,1.87126 2.27055,3.18158 3.12602,4.92897c0.60066,1.22689 0.65613,2.68917 1.3351,3.87451c0.6142,1.07226 1.92841,1.65431 2.4685,2.76575c1.50485,3.09676 2.10266,6.55737 3.19144,9.82372c2.03904,8.68273 2.49294,16.78028 -1.19144,25.2328c-0.49377,1.13277 -1.83386,1.70546 -2.4685,2.76575c-1.48268,2.47708 -1.76045,5.51469 -2.97446,8.13394c-2.82344,6.0916 -5.5541,11.84492 -7.36559,18.27659c-0.38845,1.37919 -1.28674,2.61886 -1.57673,4.01046c4.29105,5.69785 5.9419,13.47183 7.93404,20.16259c0,2.02759 0.74183,3.98892 1,6c0.53848,4.19457 0.61392,13.32654 -0.18336,17.16664c-0.41178,1.98331 -1.77154,3.65092 -2.46857,5.55281c-1.73419,4.73183 -2.37574,9.94301 -3.62086,14.80381c-0.03359,0.13114 -0.05816,0.29274 -0.08229,0.46403c0.07096,0.11352 0.13219,0.22247 0.17885,0.31371c1.51994,2.97276 3.03664,7.62077 4.33873,10.75085c2.85622,6.86606 4.3868,16.06293 2.79598,23.43468c-0.7499,3.47499 -2.36469,6.70522 -3.54704,10.05783c-0.99294,2.78812 -1.03316,5.84256 -1.88983,8.67553c-0.50335,1.66455 -1.65273,3.07342 -2.25185,4.70594c-0.85375,2.32633 -1.22938,4.81656 -2.08181,7.13972c4.9441,0.85233 8.9506,4.44446 10.39982,9.15669l0.90338,2.71014l-0.36256,0.12085c0.02816,0.35268 0.04251,0.70924 0.04251,1.06916c0,0.01525 -0.00003,0.03049 -0.00008,0.04573l0.82899,0.83185c0.02394,1.16783 0.04788,2.33566 0.07182,3.50349c1.88967,6.60015 3.73841,13.83842 2.92818,20.74134c-0.12288,1.04691 -0.8234,1.96081 -1,3c-0.44677,2.62897 0.41945,5.36653 0,8c-0.65644,4.12135 -3.24177,8.87859 -4.69385,12.58638c-1.33328,3.40445 -1.5102,7.19031 -2.85224,10.59132c-1.3086,3.31624 -3.15955,6.39062 -4.72612,9.59458c0.03098,0.09441 0.06295,0.18904 0.09597,0.28391c1.07144,3.07819 4.13074,6.02653 3.34222,9.18904c-1.42279,5.70636 -5.05835,10.94625 -9.36202,14.9544c-2.34815,2.18691 -6.2084,1.62526 -9.31259,2.43789c-9.03953,3.61581 -19.46164,4.41823 -29.18921,3.3908c-2.73353,-0.28871 -5.2753,-1.63728 -8,-2c-7.30142,-0.97198 -14.70022,-0.16576 -22,-1c-1.36548,-0.15605 -2.63642,-0.82813 -4,-1c-6.31907,-0.79648 -12.62555,-1.20655 -19,-2c-1.36384,-0.16976 -2.63575,-0.83352 -4,-1c-1.9017,-0.23207 -3.20525,0.17671 -3.41021,0.17272c-1.94554,1.20586 -4.46908,1.46904 -6.67076,2.20938c-1.31416,0.4419 -2.38745,1.45663 -3.70307,1.89416c-2.90484,0.96603 -5.95048,1.44857 -8.8925,2.29462c-1.49363,0.42953 -8.8311,3.09444 -10.58212,3.35732c-8.02948,1.20546 -16.52332,-1.05463 -24.50349,0.07182c-1.36088,0.1921 -2.63452,0.84395 -4,1c-2.75321,0.31464 -5.56064,-0.28457 -8.3133,0.03479c-4.14359,0.48074 -8.11466,2.2685 -12.18321,2.89339c-4.17545,0.64131 -8.89569,0.17109 -13.12241,0.17109c-6.66667,0 -13.33333,0 -20,0c-1.49059,0 -8.68282,0.05564 -10.12241,-0.17109c-2.23137,-0.35143 -4.24792,-1.71297 -6.49651,-1.92818c-7.02013,-0.67189 -14.02401,-1.0153 -21,-2c-8.93089,-1.26065 -18.47346,1.04928 -27.38107,1.09927c-3.16856,-0.07969 -6.38075,0.29097 -9.50567,-0.23908c-2.94914,-0.50023 -5.47517,-2.59497 -8.42533,-3.08917c-1.95063,-0.32676 -3.91756,-0.58744 -5.89232,-0.69736c-5.54658,-0.30872 -11.26321,0.55859 -16.79561,-0.07367c-1.36548,-0.15605 -2.6335,-0.85314 -4,-1c-6.56054,-0.70507 -13.43265,0.93769 -20,0c-2.5687,-0.36676 -4.96182,-1.54964 -7.50349,-2.07182c-1.81041,-0.37194 -4.96729,0.17109 -6.87759,0.17109c-5.66667,0 -11.33333,0 -17,0c-4.24342,0 -8.03661,-0.29767 -12.12241,-1.17109c-2.27252,-0.48579 -4.65522,0.32604 -6.97045,0.12594c-2.32067,-0.20057 -6.96167,-1.59789 -9.78472,-1.12594c-4.80729,0.80367 -9.60468,1.75637 -14.46238,2.15464c-1.67497,0.13733 -3.38357,-0.36028 -5.0411,-0.08283c-1.35551,0.2269 -2.63557,0.835 -4,1c-1.03128,0.12471 -2.10073,-0.37195 -3.11325,-0.1398c-1.74966,0.40116 -3.25482,1.57979 -5,2c-1.2604,0.30349 -2.59995,-0.01784 -3.88675,0.1398c-3.93516,0.48208 -7.6997,2.93633 -11.5747,3.74482c-2.30734,0.48141 -4.66667,0.66667 -7,1c-2.39216,0.84971 -4.46844,2.81124 -7,3c-4.43821,0.33093 -9.40482,0.9461 -13.29634,-1.21336c-8.57372,-4.75769 -8.72844,-10.33058 -8.93082,-17.55575c-0.59404,0.08147 -1.20064,0.12356 -1.81706,0.12356c-7.31777,0 -13.25,-5.93223 -13.25,-13.25c0,-0.98437 0.10734,-1.94367 0.31096,-2.86682l0.94634,-4.73171l0.30367,0.06073c-0.04239,-0.28701 -0.08149,-0.57468 -0.1171,-0.86305c-0.29197,-2.36468 1.46156,-4.53592 2.23607,-6.78917c1.90822,-5.55148 4.01091,-9.43057 6.53226,-14.34658c0.20897,-0.40744 0.42027,-0.81417 0.63481,-1.21941c-7.13134,-0.21303 -12.84701,-6.06102 -12.84701,-13.24399c0,-0.6281 0.0437,-1.246 0.12824,-1.85081l0.97408,-7.79265l0.86504,0.10813l-0.58265,-1.63434c0.90513,-2.47533 1.71488,-4.80989 2.46141,-7.06968c0.04639,-6.6026 3.69263,-13.4453 4.82193,-20.11841c1.34981,-7.97611 3.82783,-15.79837 4.38881,-23.86841c0.22847,-3.28671 0.27061,-6.57961 0.23679,-9.87507c-0.97728,0.22972 -1.99627,0.35124 -3.04365,0.35124c-7.31777,0 -13.25,-5.93223 -13.25,-13.25v-4l0.56567,0l0.68681,-3.09064l-0.57253,-1.09938c0.36165,-0.54891 0.76553,-1.07665 1.17297,-1.6026l0.45599,-2.05197c-0.16565,-0.6017 0.96345,-5.84538 2.50891,-12.56207c-0.52892,-1.43106 -0.81782,-2.97846 -0.81782,-4.59334v-3.22027c-0.00694,-20.74143 -1.96772,-41.46686 -0.99266,-62.22066c0.23517,-5.00558 0.76979,-9.99419 1,-15c0.11867,-2.58032 -0.98577,-5.38105 0.0462,-7.74899c0.16329,-0.37469 0.33047,-0.74741 0.50128,-1.11829l-0.34109,-0.06202l1.95867,-10.77269c0.96181,-5.91471 5.83946,-10.51517 11.88575,-11.0542c0.85147,-2.31868 1.71131,-4.63392 2.33746,-7.01647c0.44428,-1.69051 1.15148,-3.90506 0.77548,-5.66399c-1.16833,-5.46538 -0.98735,-10.95814 -2.64268,-16.41788c-2.37748,-7.84158 -5.79867,-14.88768 -7.25079,-23.00645c-0.9902,-3.9466 -1.71367,-8.1591 -2.8525,-12.13554z"/></g></g></svg>