<svg version="1.1" xmlns="http://www.w3.org/2000/svg" xmlns:xlink="http://www.w3.org/1999/xlink" width="172" height="73.70002" viewBox="0,0,172,73.70002"><g transform="translate(-189.5,-126.6)"><g data-paper-data="{&quot;isPaintingLayer&quot;:true}" fill-rule="nonzero" stroke="none" stroke-linecap="butt" stroke-linejoin="miter" stroke-miterlimit="10" stroke-dasharray="" stroke-dashoffset="0" style="mix-blend-mode: normal"><path d="M189.5,200.30002v-45h172v45z" fill="#000000" stroke-width="0"/><text transform="translate(193.83334,186.01668) scale(0.59389,0.59389)" font-size="40" xml:space="preserve" fill="#ffffff" fill-rule="nonzero" stroke="none" stroke-width="1" stroke-linecap="butt" stroke-linejoin="miter" stroke-miterlimit="10" stroke-dasharray="" stroke-dashoffset="0" font-family="Pixel" font-weight="normal" text-anchor="start" style="mix-blend-mode: normal"><tspan x="0" dy="0">EXTRAS</tspan></text><text transform="translate(196.83334,186.62849) scale(0.56342,0.56342)" font-size="40" xml:space="preserve" fill="#ff0000" fill-rule="nonzero" stroke="none" stroke-width="1" stroke-linecap="butt" stroke-linejoin="miter" stroke-miterlimit="10" stroke-dasharray="" stroke-dashoffset="0" font-family="Pixel" font-weight="normal" text-anchor="start" style="mix-blend-mode: normal"><tspan x="0" dy="0">EXTRAS</tspan></text><path d="M304.16667,186.26667v-11.33334h16.66667v11.33334z" fill="#ffffff" stroke-width="0"/><path d="M305.5,176.93334v-8h5.33333v8z" fill="#ffffff" stroke-width="0"/><path d="M314.5,176.26667v-7.33334h5v7.33334z" fill="#ffffff" stroke-width="0"/><path d="M304.16667,128.26667v-1.66667h0.33333v1.66667z" fill="#ffffff" stroke-width="0"/><path d="M307.16667,169.6v-2h10v2z" fill="#ffffff" stroke-width="0"/><path d="M311.83333,183.6v-6.33333h2v6.33333z" fill="#000000" stroke-width="0"/><path d="M310.5,178.26667v-1h2.33333v1z" fill="#000000" stroke-width="0"/><path d="M307.83333,139.93334v-1.66666h2.33333v1.66666z" fill="#000000" stroke-width="0"/><path d="M312.83333,178.6v-1.33333h3v1.33333z" fill="#000000" stroke-width="0"/><path d="M310.83333,182.26667v-1.33333h1.66667v1.33333z" fill="#000000" stroke-width="0"/><path d="M303.16667,187.6v-24.66667h22.33333v24.66667z" fill="#000000" stroke-width="0"/></g></g></svg>