<svg version="1.1" xmlns="http://www.w3.org/2000/svg" xmlns:xlink="http://www.w3.org/1999/xlink" width="644.38618" height="627.00624" viewBox="0,0,644.38618,627.00624"><g transform="translate(124.32226,128.83878)"><g data-paper-data="{&quot;isPaintingLayer&quot;:true}" fill-rule="nonzero" stroke="none" stroke-width="0.5" stroke-linecap="butt" stroke-linejoin="miter" stroke-miterlimit="10" stroke-dasharray="" stroke-dashoffset="0" style="mix-blend-mode: normal"><path d="M-14.35941,13.337c-0.10351,-0.32531 -0.21555,-0.66254 -0.33401,-1.01004c-1.16309,-2.24357 -1.99618,-4.68576 -2.43502,-7.26233c-0.64059,-2.27884 -1.07006,-4.55712 -0.92418,-6.55265c1.3509,-18.47942 20.03288,-27.24285 35.83477,-30.80983c3.47665,-0.78479 13.25724,1.77781 16.18657,4.0411c1.45458,1.12385 1.8925,3.50393 3.60438,4.17349c0.06005,0.02349 2.7485,-3.23261 3.26482,-3.75741c2.97546,-3.02434 5.96767,-6.03268 9,-9c2.68733,-2.62971 6.4335,-4.53637 8.91178,-7.17595c6.33333,-6.74553 12.0936,-16.93394 19.31277,-23.24013c0.58558,-0.51152 1.52657,-0.32823 2.2518,-0.60859c2.93284,-1.1338 5.67202,-2.80772 8.70748,-3.62811c2.61965,-0.70802 12.26062,2.31745 14.67419,2.96977c1.1293,0.30522 2.25536,0.68958 3.27278,1.26693c0.59306,0.33653 0.74725,1.89036 1.33709,1.5482c2.54824,-1.47822 4.38215,-3.94497 6.43576,-6.05718c6.98694,-7.18632 11.63972,-14.4326 17.95962,-21.85989c3.27618,-3.85025 7.68834,-8.4457 10.21317,-13.08624c2.60792,-4.79327 4.72805,-8.68381 9.14812,-12.54489c0.58558,-0.51152 1.52657,-0.32823 2.25179,-0.60859c2.93284,-1.1338 5.67202,-2.80772 8.70748,-3.62811c2.96846,-0.80228 6.04889,1.12336 9.0416,1.82984c2.99271,0.70649 6.60911,0.36174 8.90538,2.40686c2.34811,2.09128 4.0495,4.81348 6.16566,7.13918c0.52328,0.5751 1.4469,0.83198 1.74189,1.55137c8.89871,21.70091 -7.94604,46.22652 -19.55943,63.2707c-2.25018,3.30244 -5.43458,6.0732 -7.53903,9.40274c-1.61762,2.55932 -5.89566,14.76557 -6.41694,15.88322c-2.30916,4.95097 -6.61183,8.44978 -9.42195,13.08689c-2.31252,3.816 -3.59367,8.18595 -5.80048,12.06403c-3.53359,6.2097 -7.951,11.87314 -11.9685,17.78129c-7.67636,11.28886 -15.26042,22.64034 -22.94728,33.92206c-7.13608,10.47335 -17.16783,20.78014 -25.18536,30.60965c-3.5794,4.38836 -9.2262,8.48844 -12.77766,12.03818c-3.12806,3.12654 -6.39282,7.57954 -9.92724,10.84295c-10.47764,9.67427 -20.99407,19.20099 -32.19945,28.02322c-4.16343,3.27796 -9.7004,6.35938 -13.45817,9.08507c-2.23507,1.62121 -6.213,8.1827 -7.70607,9.48695c-3.17199,2.77084 -6.57328,-0.75528 -11.09763,4.20871c-15.40433,16.90115 -30.68432,33.65263 -43.55423,52.56505c-2.54292,3.73684 -6.31162,7.04023 -8.96283,10.44425c-3.9755,5.10433 -7.90376,10.6675 -11.87455,15.81183c-3.85197,4.99038 -7.58426,12.34935 -12.98844,15.83955c-12.53501,8.09553 -28.07914,3.82549 -36.33611,-8.55995c-10.9361,-16.40414 6.63674,-32.82587 15.39682,-44.52678c1.85929,-2.48346 3.40162,-5.18982 5.16261,-7.74392c2.58764,-3.75304 6.29999,-6.88043 8.96283,-10.44425c3.25056,-4.3504 5.98387,-9.0647 9.03717,-13.55575c1.96709,-2.89336 4.79599,-5.26191 6.78275,-8.07615c0.14614,-0.20701 -0.51583,-0.1697 -0.65917,-0.37867c-0.77927,-1.13609 -1.23728,-2.47777 -2.05874,-3.58373c-1.20431,-1.62142 -2.98395,-2.8087 -3.99003,-4.56003c-1.61077,-2.80393 -1.63524,-8.16743 -1.40842,-11.26735c0.36087,-4.93195 2.84126,-8.61245 4.88969,-12.9682c2.85264,-6.06584 5.54574,-13.39991 8.04715,-19.65817c4.15299,-10.39037 5.49926,-14.44748 10.83735,-24.82054c5.37394,-10.44271 14.14785,-19.96371 20.59344,-29.75716c8.54964,-12.99035 16.40879,-27.14527 25.39409,-39.98141z" fill="#ff0000"/><path d="M176.11006,69.43378c-9.60243,13.23261 -21.11798,25.09542 -30.49993,38.49587c-1.27455,1.82047 -1.97251,4.6925 -3.11224,6.81444c-4.20588,7.83048 -8.72449,15.49711 -12.70037,23.44684c-12.2147,24.42316 -23.15748,48.68266 -36.27015,72.49857c-2.19667,3.9897 -5.857,6.94478 -8.44799,10.61085c-4.42669,6.26344 -7.24681,13.38217 -10.68878,20.03666c-0.39262,0.75908 -1.78375,1.7866 -2.19846,2.73461c-1.77139,4.04936 -2.0298,9.29813 -4.31586,13.16858c-2.03131,3.43914 -5.36278,5.94871 -8.38526,8.55995c-6.40812,5.53624 -21.54272,5.53624 -27.95085,0c-3.02247,-2.61124 -6.35395,-5.12081 -8.38525,-8.55995c-0.69312,-1.1735 0.08529,-4.1403 -1.2547,-3.89143c-1.31748,0.24469 -13.88352,20.79446 -14.04129,21.0192c-5.64433,8.04068 -12.58114,14.56216 -18.65239,22.13344c-3.47534,4.334 -8.44875,11.69843 -11.52671,15.89983c-1.59677,2.17958 -1.83051,5.62613 -3.28924,7.93577c-1.55339,2.45954 -6.22669,7.54971 -7.42187,8.59375c-0.58557,0.51152 -1.52657,0.32824 -2.2518,0.6086c-2.93284,1.1338 -5.67202,2.80772 -8.70748,3.62811c-2.61966,0.70801 -12.26061,-2.31746 -14.67419,-2.96978c-1.1293,-0.30521 -2.26257,-0.67707 -3.27278,-1.26693c-0.63922,-0.37324 -0.7118,-1.70954 -1.45144,-1.68061c-1.66041,0.06493 -2.96849,1.61045 -4.60158,1.91733c-1.55668,0.29252 -8.87952,-1.79159 -9.0416,-1.82985c-2.99271,-0.70648 -6.6091,-0.36174 -8.90538,-2.40686c-6.16765,-5.49306 -9.88892,-11.55904 -10.70264,-19.6962c-0.89661,-8.96612 2.82925,-16.01645 6.00052,-23.98876c4.91459,-12.35485 8.56519,-21.3385 14.71205,-33.46008c0.75076,-1.4805 -0.4914,-3.29002 -0.5568,-4.94871c-0.2231,-5.65782 0.33407,-10.94842 1.25127,-16.53553c1.6324,-9.94376 5.88218,-17.73704 9.92301,-26.71472c1.80836,-4.01771 3.04013,-8.67497 5.42724,-12.5163c20.50543,-32.99725 55.06573,-56.98809 83.3425,-82.5328c4.72572,-4.26912 9.18429,-8.83531 13.50963,-13.50962c1.23548,-1.33516 2.0008,-3.96059 3.06556,-5.52758c7.14655,-10.51749 13.37295,-21.67489 21.79556,-31.27254c6.35204,-7.23821 12.87608,-16.11485 20.33672,-22.12471c7.62286,-6.14053 14.6843,-12.08939 21.67085,-18.94386c1.42245,-1.39556 3.65452,-2.75431 4.75733,-4.1747c2.50457,-3.22578 4.74648,-6.63802 6.92038,-10.09933c-0.00003,-0.01609 -0.00005,-0.03219 -0.00005,-0.04829c0,-10.52411 6.5029,-19.5294 15.70972,-23.21687c2.96135,-4.07272 5.89172,-8.30707 7.94539,-12.23546c8.51984,-16.29732 12.0012,-37.09748 26.36946,-49.51081c6.40813,-5.53624 21.54272,-5.53624 27.95085,0c2.27473,1.96524 4.22152,4.28136 6.28894,6.46364c0.67963,0.71739 1.53105,1.28573 2.09632,2.09631c0.29677,0.42556 0.06821,1.92086 0.38313,1.50856c2.71182,-3.55038 5.50167,-11.6419 7.04428,-15.39013c2.15613,-5.23897 5.02104,-10.19017 7.79479,-15.12437c0.64407,-1.14574 0.82356,-3.06083 1.48993,-4.34913c3.89313,-7.52672 9.23717,-12.56968 16.82507,-16.49445c11.13987,-5.76201 32.86445,7.02082 33.23756,19.55709c0.20145,6.76865 -1.25266,12.16594 -3.09733,18.56366c-2.53778,8.80156 -5.22307,18.20622 -10.23685,25.99948c-4.22174,6.56214 -9.60811,12.41079 -13.1648,19.35592c-2.62834,5.13233 -4.24189,10.72421 -6.42454,16.06135c-3.53419,8.64201 -13.06628,24.49504 -14.22961,26.62231c-7.93658,14.51287 -22.30302,33.47507 -31.83107,47.44954z" fill="#e2ff00"/><path d="M306.31844,-79.32118l6.96695,-7.83782l6.4964,-8.35251l0.29137,-0.30612l0.23691,-0.34998l1.45617,-1.74741l0.87435,-2.74798l7.42188,-8.59375l14.45313,-3.90625l14.45313,3.90625l7.42188,8.59375l2.12772,6.68713l0.60437,0.86087l0.02188,1.24168l0.37103,3.71032v12l-0.39062,3.90625l-0.02641,0.08302l-0.00119,0.08711l-0.86469,3.82932l-1,3l-0.72523,1.61784l-0.63117,1.6568l-3,6l-0.37136,0.58799l-0.28324,0.63515l-2.85309,4.99291l-7.24057,20.81663l-0.17124,0.36908l-0.10755,0.39239l-0.73629,1.91437l12.47542,-8.31694l4.24957,-4.24957l1.9066,-1.55994l1.90356,-1.56365l4.55575,-3.03717l7.70267,-6.84681l0.32407,-0.23479l0.28042,-0.28551l3.75669,-3.13058l3.83157,-5.10876l1.61509,-2.42263l2.49181,-3.03352l1.72225,-1.3778l2.61177,-2.68432l1.55192,-0.64663l1.15616,-0.92493l3.1784,-0.88114l4.59509,-1.91462l1.33595,0.27037l1.83288,-0.50813l6.58492,2.21173l4.92043,0.9958l1.18408,1.05457l1.50309,0.50486l3.30582,3.77808l5.18735,4.61999l0.46819,1.84349l0.89756,1.02579l0.61744,4.93958l0.81189,3.19679l-0.22944,1.46272l0.20853,1.66826l-1.03485,3.59945l-0.34179,2.1789l-1.39754,3.66855l-0.25506,0.51013l-0.73233,2.10063l-1.49829,4.7089l-1.21173,1.40307l-0.66327,1.09693l-0.72088,0.96118l-0.02555,0.10221l-0.32476,0.90469l-0.21172,0.93761l-0.01093,0.0328l-0.09678,0.96776l-0.02641,0.08301l-0.00119,0.08711l-0.86469,3.82932l-0.69638,2.08915l-0.76714,3.06854l-0.47625,1.3267l-0.01909,0.1217l-0.42637,1.11923l-0.40465,1.12725l-0.06471,0.10483l-0.50181,1.31724l-3.02465,6.04931l-0.02923,0.39948l-0.46179,0.89279l-0.12793,0.38378l-1.60584,3.58227l-1.09417,1.5013l-0.85348,1.65006l-1.36903,1.67326l-0.43388,0.86775l-2.09632,3.31917l-0.06075,0.06244l-0.04003,0.07737l-2.48592,3.03835l-3,3l-1.07106,0.87632l-0.98924,0.96773l-2.52166,2.01733l-1.09571,1.46094l-1.19962,1.30548l-1.1227,1.37219l-4,4l-0.56975,0.46617l-0.49882,0.5414l-8.45091,7.51192l-2.61182,2.61183l-0.18568,0.37136l-1.19894,1.89833l-1.16174,1.92133l-3,4l-0.4345,0.47283l-0.35997,0.53178l-4.5899,5.50787l-1.26308,1.68412l-0.99187,1.98373l-2.09632,3.31917l-0.06075,0.06244l-0.04003,0.07738l-2.48592,3.03835l-3.3211,3.32109l-5.09948,5.9494l-2.51793,3.1474l-3.03309,5.30791l-1.12733,1.58306l-1.05703,1.63084l-3.57439,4.46798l-4.60399,6.44559l-1.35973,1.55058l-1.30593,1.59614l-6.48052,6.48052l-7.51191,8.45091l-1.024,0.94346l-0.93712,1.0298l-17.66523,15.89871l-4.05374,6.08061l-3.87367,6.19788l-3.28618,7.39391l-0.54368,0.95421l-0.00567,0.0176l-0.69868,1.21863l-0.6954,1.2205l-0.01228,0.01382l-0.54624,0.95274l-5,7l-0.61496,0.70127l-0.52285,0.77239l-5,6l-1.49162,1.46498l-1.44412,1.51182l-4.38153,3.7556l-2.087,3.13049l-0.68908,0.83888l-0.59046,0.91099l-8,10l-0.96773,0.98924l-0.87632,1.07106l-1.98673,1.98673l-3.49098,5.58558l-0.95949,1.24072l-0.07688,0.14862l-0.69438,0.84869l-0.67082,0.86744l-0.01425,0.0121l-0.24945,0.89981l-2.89394,3.61742l-0.10606,0.38258l-0.44413,0.55516l-0.21556,0.67748l-4.43007,5.12956l-0.54391,0.67988l-0.14889,0.1223l-2.299,2.662l-1.63285,0.44131l-0.14261,0.14261l-1.9066,1.55994l-0.29578,0.24296l-1.79762,2.19709l-5.57811,5.5781l-0.32354,0.54382l-0.8123,0.59202l-0.28606,0.28606l-3.03835,2.48593l-0.70046,0.3623l-0.16284,0.2737l-3.81878,2.78318l-0.09966,0.07972l-0.08156,0.13709l-1.00925,0.73556l-0.05017,0.04013l0.41883,0.72908l-0.38832,5.30708l0.58334,2.88241l-0.96344,2.31226l-0.06022,0.82301l-1.45389,2.81085l-1.88977,4.53545l-1.25708,1.22311l-1.54309,1.88601l-1.18434,2.76344l-0.35587,0.64443l-0.26207,0.68793l-4,8l-0.83011,1.31434l-0.72931,1.37282l-5.67001,8.50502l-11.69393,19.48987l-0.08425,0.11314l-0.06161,0.1269l-7.65724,12.44302l-5.28601,9.69101l-5.64923,12.23999l-0.75637,1.2848l-0.65115,1.34118l-8,13l-0.58552,0.76811l-0.48754,0.83375l-8,11l-0.81495,0.91347l-0.71821,0.99134l-15.73503,17.70191l-4.74468,5.6936l-1.20153,1.18007l-0.11337,0.15906l-0.75467,0.69349l-0.73123,0.71817l-0.16466,0.10508l-1.24006,1.13952l-0.9983,0.74873l-0.47113,0.74595l-0.72931,1.37282l-0.77827,1.16742l-0.14798,0.46508l-0.41361,0.47892l-0.10071,0.20142l-2.09632,3.31916l-6.28894,6.46364l-10.48157,4.36732l-14.67419,-2.96978l-11.18034,-9.95749l-0.42695,-1.68109l-2.39796,2.74052l-0.60876,0.56974l-0.52799,0.64532l-5.19812,5.19813l-4.17461,5.00953l-12.90209,15.87949l-0.90865,0.91488l-0.81652,0.99797l-3,3l-1.59614,1.30593l-1.55057,1.35974l-7,5l-0.3509,0.20118l-0.31255,0.25674l-12,8l-1.87213,0.99457l-1.84192,1.04946l-9,4l-0.44919,0.14814l-0.41951,0.21849l-10,4l-1.62731,0.46941l-1.59406,0.57223l-16,4l-0.73922,0.10818l-0.71695,0.21006l-14.85719,2.78573l-9.39112,2.68318l-7.71267,4.90807l-6.71901,4.47933l-5.24956,5.24957l-1.9066,1.55994l-1.90357,1.56365l-3,2l-3.46688,1.84177l-0.3407,0.09796l-0.30166,0.1862l-3.69488,1.32637l-3.96246,0.99061l-2.60707,1.08628l-3.0556,-0.6184l-7.25956,-0.4585l-3.34346,-1.68735l-1.01557,-0.20553l-0.79543,-0.70843l-4.98277,-2.51467l-2.13304,-3.82285l-3.26909,-2.91154l-1.37387,-5.40963l-0.51901,-0.93017l0.01968,-1.03597l-0.92187,-3.62987l1.12724,-7.18616l0.05918,-3.11699l0.30293,-0.43024l0.05704,-0.5704l0.02642,-0.08301l0.00119,-0.08711l0.86469,-3.82932l1,-3l0.9947,-2.21895l0.07935,-0.27598l0.28409,-0.53477l0.2477,-0.55257l0.16914,-0.23207l1.14084,-2.14747l0.2047,-0.30704l0.88716,-1.97906l1.00332,-2.24986l4,-7l0.15487,-0.21747l0.11389,-0.24146l1.30454,-2.17423l1.09468,-3.83141l0.59352,-1.49478l0.03507,-0.17388l0.42465,-0.98395l0.39548,-0.99602l0.09815,-0.14776l0.63729,-1.47665l4.37901,-7.88222l5.49629,-12.82469l0.35588,-0.64442l0.26207,-0.68794l4,-8l0.37136,-0.58799l0.28324,-0.63514l8,-14l0.15487,-0.21747l0.11389,-0.24146l3,-5l0.35624,-0.47838l0.27983,-0.52674l8,-12l0.84737,-1.03159l0.74835,-1.10552l4.14505,-4.97406l3.25922,-4.88883l1.67007,-2.03312l0.14977,-0.24205l0.35018,-0.3666l0.3218,-0.39175l0.22227,-0.17781l1.81739,-1.90258l6.27103,-5.37516l10.64219,-10.64219l5.37516,-6.27103l0.13029,-0.12445l0.10518,-0.1463l0.74594,-0.84541v-9.61406l0.39063,-3.90625l2.73438,-8.59375l0.36879,-0.42701l0.41246,-1.52611l3.56326,-3.07736l3.07737,-3.56327l0.8491,-0.22949l1.46269,-1.78772l0.87697,-1.38854l0.06075,-0.06244l0.04002,-0.07738l2.48592,-3.03835l1.60995,-1.60995l0.63546,-0.90255l1.55155,-0.95775l1.24138,-1.01567l2.49284,-1.2894l1.24992,-0.77155l1.2382,-1.8573l1.94129,-5.82385l0.42571,-0.94966l0.31275,-0.99262l3,-7l0.57134,-1.03459l0.45989,-1.08873l6,-11l0.62559,-0.91636l0.52055,-0.97985l3.67001,-5.50501l5.69392,-9.48987l0.35624,-0.47838l0.27983,-0.52674l0.2047,-0.30704l0.60472,-1.34898l0.63116,-1.65681l0.77271,-1.54541l0.33441,-1.33764l0.9667,-2.69294l0.92619,-3.64686l2.368,-2.109l1.80251,-2.92005l9.28457,-6.53709l6.26138,-0.11889l6.13808,-1.24223l10.48157,4.36732l2.34845,2.41369l1.31544,-2.63089l0.37136,-0.58798l0.28324,-0.63515l4,-7l1.02844,-1.44419l0.94383,-1.50085l6.21313,-7.98831l4.20027,-6.72044l4.85245,-8.08741l3.25604,-8.14009l0.92256,-1.77132l0.85203,-1.8063l5.78569,-9.64282l4.75064,-8.55116l5.24143,-9.60927l3.44765,-8.61912l0.21849,-0.4195l0.14813,-0.4492l4,-9l0.55062,-0.9664l0.44074,-1.02121l4.23049,-7.61489l1.41152,-3.52881l0.48074,-0.92303l0.37049,-0.97254l3,-6l1.10126,-1.74366l1.04102,-1.78029l7.70003,-10.58755l7.71711,-11.57566l0.58055,-0.70676l0.4869,-0.77425l7,-9l0.41121,-0.43203l0.34117,-0.48924l4.62842,-5.39982l4.91567,-8.19279l1.0026,-1.34634l0.913,-1.40864l6.94955,-8.68693l5.13485,-8.55808l0.77014,-1.03419l0.66718,-1.10342l11.06614,-14.75484l3.22778,-5.64862l0.50024,-0.70246l0.40459,-0.76157l2.49282,-3.73923l0.00164,-0.02238l0.14392,-0.27825l0.95096,-2.3774l1.81343,-3.48179l0.7167,-0.87093l0.51819,-1.00183l2.48592,-3.03835l1.81057,-1.81057l0.19905,-0.24189l0.08886,-0.04603l2.15107,-2.15108l0.62685,-0.94027l2.49182,-3.03351l0.78245,-0.62597l0.62596,-0.78245l1.88527,-1.54862l4.53495,-6.4785l1.42217,-1.65327l1.38096,-1.68785l2,-2l1.30593,-1.06848l1.10738,-1.75335l0.06075,-0.06244l0.04003,-0.07738l2.48592,-3.03835l3.74368,-3.74368l4.51764,-6.02351l3.61509,-5.42263l2.49182,-3.03352l0.78245,-0.62597l0.62596,-0.78245l0.29293,-0.24062l0.51434,-1.90306l4.91067,-4.24103l2.20765,-2.26898l0.81072,-0.3378l0.6647,-0.57406l0.10393,-0.03307l2.19753,-1.79799l1.22311,-1.25708l4.53545,-1.88977l2.81085,-1.45389l0.82301,-0.06022l2.31226,-0.96344l2.88241,0.58334l5.30708,-0.38832l3.93019,2.25777l2.55451,0.51699l3.00643,2.6776l3.4909,2.00541l1.29827,2.25994l1.10358,0.98288zM-16.04443,406.68991l-2.81085,1.45389l-0.82301,0.06022l-2.31226,0.96344l-2.8824,-0.58335l-5.30708,0.38833l-0.87287,-0.50144l-6.38114,11.16699l-0.1056,0.21121l7.7152,-1.4466l13.63062,-3.40765l7.32418,-2.92968l-2.05556,-0.84641l-0.87389,-1.31736l-0.4849,-0.28848l-2.51009,-3.44408z" fill="#00ff09"/><path d="M137.51559,355.837c0,-4.59848 1.24154,-8.90697 3.40772,-12.60856l0.49853,-1.84456l2.13545,-1.84425c0.75539,-0.87793 1.57072,-1.7028 2.43964,-2.46828l0.15798,-0.41469l1,-2l0.83011,-1.31433l0.72932,-1.37283l2,-3l0.44142,-0.53738l0.35984,-0.59511l2.58365,-3.44487l1.61509,-2.42264l0.44142,-0.53738l0.35984,-0.59511l2.58365,-3.44487l1.61509,-2.42264l1.56364,-1.90357l1.55994,-1.9066l1.74368,-1.74369l1.51764,-2.02351l1.61509,-2.42264l0.44142,-0.53738l0.35984,-0.59511l5.58365,-7.44487l1.61509,-2.42264l1.56364,-1.90357l1.55994,-1.9066l0.63264,-0.63264l2.33895,-4.09316l1.41056,-1.98079l0.13193,-0.25507l0.38345,-0.46866l0.35126,-0.49325l0.21137,-0.1944l1.53984,-1.88203l0.13131,-0.1313l3.18568,-6.37137l0.51328,-0.81269l0.41007,-0.86936l6,-10l1.0026,-1.34634l0.913,-1.40864l3.75604,-4.69505l2.34933,-3.13245l11.61509,-17.42264l1.56364,-1.90356l1.55994,-1.9066l5.53512,-5.53512l8.07444,-8.9716l3.54639,-4.43299l1.02149,-1.04418l0.07661,-0.11491l0.83263,-0.81453l0.81452,-0.83262l0.11492,-0.07661l1.04418,-1.02149l1.27686,-1.02149l1.63443,-2.86026l0.90174,-1.26627l0.80435,-1.33026l3,-4l1.95606,-2.12866l0.15331,-0.21509l0.28499,-0.26188l0.26189,-0.285l0.21509,-0.1533l2.12866,-1.95607l2.57865,-1.93398l1.7646,-1.76461l3.13503,-3.91878l1.47606,-1.50886l0.15503,-0.21752l0.57145,-0.52511l0.0625,-0.0639l0.26483,-0.59078l0.63116,-1.65681l6,-12l0.83011,-1.31433l0.72932,-1.37283l11.13664,-16.70496l2.97539,-5.95077l2.7106,-6.32474l0.08092,-0.14652l0.05242,-0.15896l4,-9l1.04946,-1.84192l0.99457,-1.87213l8,-12l0.25673,-0.31255l0.20119,-0.3509l10,-14l0.45022,-0.5134l0.3714,-0.57302l3.32226,-4.15283l5.39821,-8.0973l0.84737,-1.03158l0.74836,-1.10552l5,-6l0.28551,-0.28041l0.23478,-0.32407l7.73503,-8.70191l4.74468,-5.69361l0.06736,-0.06615l0.05352,-0.07779l10.77781,-12.73741l3.78512,-4.73141l0.96773,-0.98924l0.87632,-1.07106l0.33772,-0.33771l0.21495,-0.98461l1.06061,-1.48802l0.66591,-1.27853l1.83328,-2.22778l1.67458,-2.34941l1.06146,-0.97539l1.16113,-1.41099l0.99633,-0.51609l0.39512,-0.29633l0.27659,-0.45745l2.58366,-3.44487l1.61509,-2.42264l2.49181,-3.03351l0.78246,-0.62597l0.62597,-0.78245l2.82359,-2.31938l0.54685,-0.86585l0.72932,-1.37283l3.45173,-5.17759l0.04273,-0.58403l1.46497,-2.83227l0.96683,-3.03861l1.50806,-1.74616l0.20335,-0.39315l0.7235,-0.88428l0.44825,-0.99993l0.63116,-1.65681l1,-2l2.0376,-3.22619l0.01629,-0.22259l0.83768,-1.61952l0.54192,-1.50962l1.4742,-2.38821l1.2894,-2.49285l1.01567,-1.24137l0.72326,-1.17167l0.06398,-0.12798l0.68451,-1.0838l0.71303,-1.71128l3.13854,-3.05371l1.56023,-2.47036l0.30867,-0.31725l1.17967,-1.98285l0.62968,-0.45892l0.05259,-0.19461l3.56326,-3.07736l3.07736,-3.56326l1.52611,-0.41246l0.42702,-0.36879l0.67473,-0.21469l0.84985,-0.87345l1.71128,-0.71304l1.08381,-0.68451l0.20143,-0.10071l0.47891,-0.41361l0.95783,-0.30476l0.36183,-0.18092l3.66855,-1.39754l1.03375,-0.16215l0.98419,-0.41008l0.43459,0.08795l1.15302,-0.36687l3.90625,-0.39062h0.40454l0.993,-0.15577l0.62038,0.15756l1.22763,0.12276l2.2483,-0.45501l5.98941,2.49558l3.01673,0.95987l0.66471,0.57406l0.81072,0.3378l1.17882,1.21157l1.02609,0.39089l0.36184,0.18092l0.95782,0.30476l0.47892,0.41361l0.20142,0.10071l1.31434,0.83011l0.50887,0.27034l0.05572,0.01773l0.43459,-0.08795l0.98419,0.41008l1.03375,0.16215l3.66855,1.39754l0.36184,0.18092l0.95782,0.30476l0.47892,0.41361l0.20142,0.10071l1.08381,0.68451l1.71128,0.71304l1.49041,1.53181l1.21068,0.38522l1.83527,0.28788l2.52499,0.9619l1.86947,0.18695l1.77027,0.56327l1.83527,0.28788l2.80071,1.06694l1.75089,0.43773l0.37874,0.13595l1.05173,-0.21285l5.98941,2.49559l3.01673,0.95987l0.66471,0.57407l0.81072,0.3378l2.20765,2.26898l4.91067,4.24103l0.5985,2.21443l0.66843,1.05836l0.10072,0.20143l0.4136,0.47891l0.30477,0.95783l0.18091,0.36183l1.39754,3.66855l0.28789,1.83528l0.56327,1.77026l0.39063,3.90625v0.40455l0.15577,0.993l-0.15756,0.62038l-0.03458,0.34576l0.17122,1.36976l-0.47257,1.64371l-0.05291,0.52909l-1.0288,3.23338l-0.93754,3.261l-0.24946,0.46959l-0.51857,1.62979l-0.90227,1.04474l-0.17147,0.32277l-2,3l-1.56364,1.90357l-1.55994,1.9066l-8,8l-1.9066,1.55995l-0.84189,0.69156l-1.61973,1.97185l-0.78246,0.62596l-0.62597,0.78245l-1.60864,1.32139l-1.49112,2.23667l-1.56364,1.90357l-1.55994,1.9066l-4.13131,4.13131l-0.18568,0.37136l-0.6759,1.07018l-0.02787,0.07257l-0.70267,1.08412l-0.68988,1.0923l-0.05421,0.05572l-0.68844,1.06215l-3.32226,4.15283l-4.125,6.18749l-2.09584,4.89028l-1.10499,2.00093l-1.07238,2.01859l-3.60967,5.41452l-8.68302,14.76112l-3.29665,8.24162l-0.48075,0.92303l-0.37049,0.97254l-3.53496,7.06992l-3.61381,9.03451l-0.30047,0.5769l-0.21246,0.61478l-6,13l-0.60726,1.03151l-0.49726,1.08881l-6.81904,11.6898l-5.41136,9.92083l-10.63745,23.20897l-0.21464,0.36682l-0.1513,0.39715l-4,8l-0.83011,1.31434l-0.72931,1.37283l-6,9l-0.68908,0.83888l-0.59046,0.91099l-2.34549,2.93186l-15.22873,30.45747l-2.53927,6.77139l-0.32965,0.66796l-0.23329,0.70741l-4,9l-0.86833,1.524l-0.777,1.57251l-4.73859,7.58175l-3.04595,5.3304l-2.4368,5.68586l-0.74444,1.34803l-0.63972,1.40076l-6.22316,10.66828l-2.39268,5.58292l-0.35587,0.64443l-0.26207,0.68793l-4.74603,9.49207l-3.76936,8.48106l-0.11435,0.20069l-0.07637,0.21799l-6.83223,14.64049l-2.84373,6.63536l-0.08092,0.14652l-0.05242,0.15896l-4,9l-1.04946,1.84192l-0.99457,1.87212l-3.58434,5.37653l-6.62244,11.35275l-1.30352,1.79631l-0.12736,0.24623l-0.45385,0.5547l-0.42093,0.58007l-0.20571,0.18583l-1.40544,1.71775l-1.82378,1.82378l-0.92259,1.53765l-1.57062,3.14124l-1.04447,1.65375l-0.97287,1.69686l-4.76569,6.67197l-0.91303,1.36954l-1.30394,2.60787l-2.09632,3.31916l-0.06075,0.06244l-0.04003,0.07737l-2.48592,3.03835l-3.74369,3.74369l-1.93399,2.57864l-1.19962,1.30548l-1.1227,1.37219l-1.02092,1.02092l-3.13503,3.91879l-2.56306,2.62002l-0.05764,0.07204l-0.06538,0.05371l-0.05916,0.06048l-0.07677,0.05118l-1.77054,1.45437l-1.61973,1.97185l-1.24465,0.99572l-1.05379,1.19588l-3.1486,2.34471l-0.89333,0.536l-0.70172,0.56137l-0.43481,0.12054l-0.33109,0.19865l-3.82378,3.82378l-1.9066,1.55994l-1.90356,1.56365l-3,2l-1.37283,0.72931l-1.31433,0.83011l-2,1l-3.66855,1.39755l-8.90933,1.39754l-0.54686,-0.13889l-1.54945,0.31358l-4.34602,-1.81084l-4.56331,-1.15894l-1.05141,-1.18053l-0.52083,-0.21701l-6.28894,-6.46364l-0.87698,-1.38854l-1.09627,-1.3399l-0.24296,-0.29577l-2.19709,-1.79762l-6.63264,-6.63264l-4.09316,-2.33895l-1.98078,-1.41055l-0.25507,-0.13193l-0.46867,-0.38345l-0.49326,-0.35126l-0.19439,-0.21137l-1.88203,-1.53984l-0.05049,-0.05049l-0.17809,-0.01781l-1.77026,-0.56327l-1.83527,-0.28788l-3.66855,-1.39755l-0.36184,-0.18091l-0.95782,-0.30477l-0.47892,-0.4136l-0.20143,-0.10072l-1.05836,-0.66843l-2.21443,-0.5985l-4.24103,-4.91066l-2.26898,-2.20766l-0.33781,-0.81072l-0.57406,-0.66471l-0.21469,-0.67473l-0.87345,-0.84984l-0.33781,-0.81072l-0.57406,-0.66471l-0.95987,-3.01673l-2.49559,-5.98941l0.45502,-2.2483l-0.00077,-0.0077l-0.38784,0.10752l-0.82969,0.26399l-0.19172,0.01918l-3.38951,0.93966l-1.69172,-0.56822h-0.6333c-4.16768,0 -8.09716,-1.01982 -11.55253,-2.82353l-0.94747,-0.30147l-0.84993,-0.73402c-2.10229,-1.33033 -3.99247,-2.96558 -5.60838,-4.8436l-2.13545,-1.84425l-0.49853,-1.84456c-2.16618,-3.70159 -3.40772,-8.01009 -3.40772,-12.60856zM410.94912,54.5923l-2.01718,2.68957l-0.05685,0.08527l0.00468,0.01731l0.0177,0.01174l0.16565,0.4023zM439.54017,10.80014l-0.13696,-0.14076l-0.02513,0.04072l-0.50181,1.31724l-0.10364,0.20728l1.23127,-1.23127z" fill="#00f3ff"/><path d="M512.84605,53.33086c-0.39798,2.57099 -1.34616,4.74918 -2.52967,6.77418c-1.16214,2.57657 -2.74818,4.92083 -4.66925,6.94388c-2.65447,4.08165 -4.43477,8.67137 -7.33028,12.65559c-0.94626,1.30205 -2.31958,2.30576 -3.06142,3.73419c-1.0854,2.08995 -0.69292,5.32829 -0.91782,7.57734c-0.61415,6.14155 -1.66624,12.29818 -1.66624,18.42342c0,11.45625 -4.35998,22.63821 -5.96141,33.90124c-0.37374,2.62857 1.80061,5.00712 2.41501,7.59005c1.33441,5.60978 0.47523,15.01726 0.39063,19.90625c-0.14594,8.43352 -4.52443,14.89866 -5.65879,23.03332c-0.19768,1.4176 2.06819,2.11321 2.53379,3.46668c2.2278,6.47613 5.06572,14.47102 5.125,21.5c0.24487,29.031 -2.29528,58.32486 -9.79072,86.42913c-2.05997,7.72388 4.33935,14.84359 6.54895,22.05909c3.20435,10.46391 3.1156,19.49131 3.24178,30.50092c0.05512,4.80991 -0.89554,12.21127 -3.63932,16.41405c-2.18351,3.34458 -5.36278,5.94871 -8.38525,8.55995c-0.90219,0.77944 -2.74975,1.18003 -3.88207,1.61753c-2.22301,0.85888 -4.2637,2.27708 -6.5995,2.7498c-1.16462,0.2357 -2.30563,-0.70709 -3.49386,-0.70709c-1.18823,0 -2.32923,0.94279 -3.49385,0.70709c-2.69217,-0.54485 -5.15103,-1.91334 -7.68649,-2.96978c-0.84287,-0.3512 -2.51545,-1.84906 -3.10494,-1.716c-2.93529,0.6625 -5.71231,2.55631 -8.71472,2.35532c-4.97942,-0.33333 -10.1201,-1.43023 -14.45312,-3.90625c-3.28631,-1.87789 -5.19856,-5.53055 -7.42187,-8.59375c-0.59701,-0.82254 0.0627,-2.66378 -0.92449,-2.90554c-1.74416,-0.42714 -3.40897,1.5276 -5.20051,1.40554c-2.99932,-0.20436 -5.74116,-2.84791 -8.70642,-2.35308c-1.93184,0.32238 -2.33324,3.19613 -3.84045,4.44683c-0.59835,0.49652 -1.52657,0.32824 -2.25179,0.6086c-2.93284,1.1338 -5.67202,2.80772 -8.70747,3.62811c-2.96846,0.80228 -6.04889,-1.12337 -9.0416,-1.82985c-2.99271,-0.70648 -6.54631,-0.4345 -8.90539,-2.40686c-1.82723,-1.5277 -2.71692,-4.04487 -4.67025,-5.40765c-0.49726,-0.34692 -0.83178,0.92288 -1.37663,1.1889c-0.95513,0.46634 -2.05661,0.56008 -3.0386,0.96683c-5.78012,2.3942 -8.74177,3.36675 -13.78373,7.83584c-1.70581,1.512 -5.34316,4.82285 -7.27448,5.68301c-7.1352,3.17782 -19.69731,4.4224 -25.8429,-1.16381c-0.79153,-0.71948 -2.19977,-0.40875 -3.01342,-1.10312c-5.35307,-4.56837 -9.18522,-10.76892 -10.87733,-17.59989c-0.57732,-2.33065 0.68793,-6.27681 0.45502,-8.73941c-0.072,-0.76123 -0.63887,-1.50611 -0.45502,-2.2483c0.52004,-2.09939 1.72082,-3.9701 2.49559,-5.98941c1.43385,-3.73714 3.48856,-4.70602 5.35002,-8.10006c0.23053,-0.42032 1.00279,-3.42017 1.3911,-3.8698c2.04611,-2.36917 4.27145,-4.59452 6.64063,-6.64062c2.37698,-2.05284 5.63358,-2.16084 8.39263,-6.11602c0.07801,-0.11183 0.55685,-8.84307 1.0224,-10.65826c2.93021,-11.42514 6.59494,-21.71535 10.62215,-32.70942c4.13045,-11.2759 4.71707,-24.9724 6.90143,-36.32545c1.86009,-9.66767 5.04134,-18.81924 8.92654,-27.82286c4.56917,-10.58864 6.06181,-22.76569 11.61023,-33.01558c2.53669,-4.68616 6.59535,-8.57038 9.43138,-13.06764c6.61185,-10.48483 13.45127,-21.16812 22.85861,-29.27403c3.52098,-3.03388 7.76435,-14.79766 8.92859,-17.26207c3.57565,-7.56873 9.41172,-13.97488 13.04027,-21.53599c1.93584,-4.03387 2.74571,-9.19851 4.50697,-13.40371c1.28521,-3.06856 5.94938,-11.653 6.39589,-14.55493c1.22301,-7.94858 3.69969,-15.06019 7.35463,-22.13921c2.20006,-4.26114 4.66884,-8.38727 6.69894,-12.73196c0.7094,-1.5182 0.57339,-3.474 1.6687,-4.74225c2.04611,-2.36917 4.27145,-4.59452 6.64063,-6.64063c2.37181,-2.04838 6.20069,-2.39764 8.0244,-5.66595c2.69311,-4.82641 6.51734,-9.05578 10.06178,-13.48646c1.77333,-2.21672 5.18099,-7.31455 7.91382,-8.84758c3.67633,-2.0623 14.42641,-5.31799 19.14876,-4.04168c1.71345,0.4631 2.97733,1.97317 4.61714,2.6524c1.63982,0.67923 3.6013,0.50515 5.14035,1.38928c4.28196,2.45985 7.29619,9.4304 8.94015,13.36547c0.4494,1.07572 1.48325,1.89596 1.74217,3.03266c1.8872,8.28537 -3.04264,23.12584 -7.74578,30.18054c0.39951,1.77434 0.61034,3.62009 0.61034,5.51509c0,0.06786 -0.00027,0.13567 -0.00081,0.20341c0.02472,1.10131 0.49985,2.20144 0.33127,3.29045z" fill="#0008ff"/><path d="M207.43942,84.44287c2.35425,-13.13894 4.43738,-33.4426 19.90998,-37.31075c6.25601,-1.564 14.53867,0.97214 20.49984,3.14433c6.71556,2.44708 13.82896,3.71865 20.56789,5.85596c8.75111,2.77549 10.54357,3.9217 19.19847,7.20459c1.15481,0.43803 4.35456,0.26591 5.01006,0.42979c3.27059,0.81765 6.72234,3.53092 8.96807,6.10928c6.1705,7.08446 6.44921,18.00636 -2.11797,23.92109c-4.08695,2.82161 -8.40285,6.11525 -13.87145,4.62382c-2.98512,-0.81412 -5.49112,-2.88264 -8.04886,-4.62382c-0.44642,-0.3039 -0.32762,-1.15618 -0.80702,-1.40481c-11.44941,-5.93813 -24.65767,-8.39034 -36.92582,-12.11457c-0.18551,-0.05632 -1.47628,7.26026 -2.35274,12.28681c5.16103,3.46769 7.9987,8.36866 6.08294,16.03172c-1.65279,6.61116 -5.18489,9.74025 -9.61553,10.9121c0.06842,5.77812 0.42035,11.56294 0.07832,17.32859c0,2.74739 -0.7148,5.32783 -1.96857,7.56549c-1.27152,2.74246 -3.16451,5.13264 -5.71412,5.82172c-2.29499,1.34303 -4.96626,2.11279 -7.81731,2.11279c-3.09971,0 -5.9869,-0.90988 -8.40907,-2.47714c-1.90547,-0.95584 -3.5004,-2.43808 -5.15343,-5.27286c-0.34631,-0.59388 -0.64716,-1.33119 -0.90784,-2.18325c-0.64406,-1.6731 -1.0063,-3.48611 -1.02857,-5.38086c-0.82451,-7.06434 -0.51363,-16.49504 -0.24025,-21.91177c-0.64561,-0.04256 -1.3315,-0.07546 -2.04496,-0.10816c-1.03749,0.21891 -2.11324,0.33404 -3.21588,0.33404c-2.47348,0 -4.81164,-0.57938 -6.88618,-1.60982c-0.58143,-0.18165 -1.14292,-0.39191 -1.67735,-0.63607l-0.54078,2.16313l-0.1911,2.48429l-1,3l-0.59896,0.94122l-0.24201,1.08907l-2,4l-0.63742,0.74365l-0.32942,0.92239l-2,3l-0.32588,0.29625l-0.1709,0.4059l-6,8l-0.86586,0.70351l-0.57399,0.95665l-3,3l-1.11088,0.66653l-0.84009,0.98619l-7,5l-1.1439,0.45063l-0.93348,0.80012l-6,3l-0.64206,0.14268l-0.5332,0.38509l-5,2l-0.79948,0.10902l-0.6989,0.40321l-7,2l-2.16076,0.07203l-2.09741,0.52435h-16l-0.76355,-0.19089l-0.77876,0.11396l-9.23076,-0.92308h-25.22693l-0.95021,-0.23755l-0.97233,0.11786l-8,-1l-1.1274,-0.43641l-1.20824,-0.04027l-7,-2l-1.49434,-0.86212l-1.66969,-0.43412l-11,-6l-1.63356,-1.50459l-1.90439,-1.14263l-4,-4l-0.44905,-0.74842l-0.69426,-0.52896l-8,-10l-0.23768,-0.51857l-1.22135,-1.4142l-0.68781,-2.75126l-1.1816,-2.57805l0.07027,-1.86728l-0.13835,-0.55342v-11l0.3142,-1.25681l-0.10331,-1.29137l0.78911,-4.73463v-4.71718l0.46279,-1.85116v-1.90814l2,-8l0.50176,-0.9408l0.14406,-1.05646l1.83084,-4.57709l0.85596,-2.56789l1.3377,-2.10209l0.9669,-2.29638l2.89177,-3.85569c1.53429,-2.09255 3.58102,-3.78586 5.95533,-4.89508l0.3529,-0.28673l0.66593,-0.14538c1.41393,-0.5406 2.9273,-0.8801 4.50511,-0.98351l1.11857,-0.2442l0.24562,-0.28656l3.12858,-1.30357l0.63466,-0.40387l1.67319,-0.55773l1.06215,-0.44256l0.16522,0.03344l0.09944,-0.03315l2.48429,-0.1911l2.41724,-0.60431h24.75326l0.38026,-0.09657l0.43458,0.09657h0.43189l3.45514,0.86379l3.47667,0.77259l0.3863,0.19315l0.43189,0.10797l0.26538,0.22919l0.56024,0.18675l4.52593,0.64656h27.89845l0.95021,0.23755l0.97233,-0.11786l8,1l0.53945,0.20882l0.57781,-0.02751l4.75492,0.95098l5.75347,0.95891l0.23531,0.10231l0.2563,-0.0122l5,1l0.34156,0.16179h0.37794l3.66821,0.91705l0.68254,0.04994l3.30112,1.98067l3.39682,1.81164l0.39399,0.55958l1.97926,1.97926l3.11876,2.33907l0.15677,0.19295l0.226,0.10358l3.52837,2.82269l0.7498,0.20265l4.60156,5.32813l0.27486,1.09942l0.6868,0.90143l0.15302,0.82362c5.31403,-4.38362 12.97965,-4.63505 20.24664,-3.46861zM61.01559,104.837l-0.3142,1.25681l0.10331,1.29137l-0.78911,4.73463v4.28007l4.06718,5.08398l1.81461,1.81461l7.53032,4.10745l4.19662,1.19903l5.85626,0.73203h25.035l0.76355,0.19089l0.77876,-0.11396l9.23076,0.92308h13.05608l4.15039,-1.18582l3.66531,-1.46612l4.33559,-2.16779l4.9665,-3.5475l1.314,-1.314l5.08094,-6.77458l1.22607,-1.83911l0.93206,-1.86413v-9.09095l-3.8,-2.85l-0.70351,-0.86586l-0.81971,-0.49183l-3.9715,-0.7943l-5.75347,-0.95891l-0.23531,-0.10231l-0.2563,0.0122l-4.44468,-0.88894l-6.48051,-0.81006h-28.035l-1.08232,-0.27058l-1.10971,0.1148l-7,-1l-1.30476,-0.53157l-1.40474,-0.10806l-3,-1l-0.3215,-0.20459h-10.93345l-0.13893,2.40153l-5.13129,7.73523l-6.50985,2.68052l-4.56346,-0.35104z" fill="#000000"/><path d="M360.51559,87.337c5.33046,-0.1749 10.68433,-0.43365 16,0c4.58768,0.37426 10.52795,2.07626 13.07813,6.53906c4.31455,7.55046 2.97291,18.37292 -5.32812,22.52344c-6.16028,3.08014 -15.13151,1.84893 -21.2347,1.9375c-2.54329,0.03691 -5.27253,0.39095 -8.04282,0.91286c-0.11743,6.52783 0.45217,13.07204 0.02752,19.58714c0,2.75906 -0.72089,5.34975 -1.98458,7.59399c-1.26573,2.72921 -3.14748,5.10387 -5.69811,5.79323c-2.29499,1.34303 -4.96626,2.11279 -7.81731,2.11279c-1.94466,0 -3.80568,-0.35812 -5.5207,-1.01202c-1.23868,-0.27569 -2.4169,-0.67915 -3.44024,-1.40986c-2.015,-1.4388 -3.53918,-3.39218 -4.61052,-5.58452c-1.22895,-2.22097 -1.92854,-4.77559 -1.92854,-7.4936c-0.24047,-3.85817 -0.25494,-7.72441 -0.20036,-11.5922c-7.76044,-0.84676 -13.79964,-7.42201 -13.79964,-15.4078c0,-6.77155 4.3423,-12.52889 10.39427,-14.63941c1.77762,-0.98081 3.69953,-1.83493 5.69639,-2.58309c0.07273,-11.92632 -0.12786,-23.86903 0.90934,-35.74249c0.89294,-10.22204 2.25814,-32.05659 15.13457,-35.2757c0.87549,-0.21887 1.80193,0.20987 2.70277,0.15636c3.97859,-0.23633 7.50989,-1.833 11.66265,-1.41566c10.32974,1.0381 19.87316,6.60232 29.73057,9.73842c14.26846,4.53946 31.89206,6.90286 45.45717,13.00404c3.80967,1.71348 8.69286,3.12115 11.4534,6.34178c10.05956,11.73615 3.38268,22.58518 -7.81754,30.65784c-5.04179,3.63391 -12.42815,6.67848 -18.51358,2.62153c-2.57449,-1.71633 -4.70347,-4.20925 -6.17364,-6.93181c-1.16331,-2.15428 0.17665,-5.37535 -1.45694,-7.19897c-1.50215,-1.67689 -4.34988,-1.16324 -6.53156,-1.71883c-3.96467,-1.00965 -7.94631,-1.95233 -11.90718,-2.9768c-7.30858,-1.89034 -15.81728,-4.83135 -23.14223,-7.33262c-3.13221,-1.06956 -3.25395,-2.7827 -9.14855,-3.41937c-0.77297,-0.08349 -0.30718,2.6626 -0.44992,4.71477c-0.20434,2.93788 -0.93614,5.98501 -1,8.965c-0.13528,6.31268 -0.09612,12.62705 -0.04806,18.94164c1.22776,-0.21514 2.42622,-0.36983 3.54806,-0.40664z" fill="#000000"/><path d="M56.01559,316.837c-0.42048,-5.47227 0.19208,-10.98016 0,-16.4652c-0.42737,-12.20371 -6.45508,-21.12365 -3.08361,-34.60953c1.96172,-7.84688 7.52058,-18.45766 17.3821,-17.77756c6.49317,0.4478 12.00117,4.1198 14.9119,9.94127c1.04948,2.09896 1.0938,4.64944 0.87322,6.98576c-0.1941,2.05586 -1.83822,3.78373 -2.08361,5.8341c-1.14681,9.58239 1.42281,15.89389 2.699,25.05136c0.87125,6.25177 0.50399,18.22745 0.301,21.0398c0,2.77246 -0.72791,5.37491 -2.00303,7.62667c-1.2588,2.71392 -3.12748,5.07077 -5.67966,5.76055c-2.29499,1.34303 -4.96626,2.11279 -7.81731,2.11279c-4.09003,0 -7.81005,-1.58415 -10.57998,-4.17235c-1.93444,-1.46072 -3.30018,-3.43457 -4.12007,-6.39928c-0.38821,-1.40375 -0.65405,-3.02963 -0.79994,-4.92837z" fill="#000000"/><path d="M92.59371,227.79794c-9.48653,8.19291 -18.18491,9.6515 -28.15625,0c-2.03039,-1.96527 -1.93427,-5.32977 -2.51845,-8.09446c-0.62431,-2.95464 0.88041,-6.77261 3.13774,-10.46302c0.98886,-2.55299 2.63439,-4.77877 4.72936,-6.47009c1.76765,-2.09396 3.49155,-3.8612 4.76854,-5.01149c5.65167,-5.09093 20.16869,-1.96252 22.82456,5.38815c1.8649,5.16149 2.83347,14.4274 0,19.37996c-0.98117,1.71496 -2.95092,2.62817 -4.42639,3.94225z" fill="#000000"/><path d="M217.22047,227.00319c-0.36878,2.38234 -1.27705,4.33797 -2.53547,6.01195c-1.80151,2.89487 -4.53096,5.15231 -7.77243,6.35641c-2.91071,1.76622 -5.94753,3.40406 -8.41978,5.44266c-3.86738,3.18902 -6.57664,8.30562 -10.47721,11.77279c-0.72128,0.64114 -0.61735,4.33167 -0.79541,5.15153c-0.65174,3.00088 -2.80932,5.21794 -2.20459,8.43942c1.24631,6.63926 5.48181,13.10712 6.36814,19.88372c0.61987,4.7393 10.12304,5.63072 13.14683,5.27534c2.56142,-0.30104 5.33905,-1.64543 7.98503,-2c4.95256,-0.66366 9.9695,-1.26371 14.90911,-2c3.05052,-0.45471 5.24171,-3.36293 8.15908,-4.36362c4.52033,-1.55052 10.12504,-2.99783 14.62179,0c2.57449,1.71633 4.7899,4.16432 6.17364,6.93181c5.25518,10.51036 -0.95228,16.39817 -8.878,21.76852c-2.55262,1.72962 -3.98304,3.57577 -7.0841,4.86788c-4.24699,1.76958 -8.83711,1.6428 -13.38623,1.79541c-2.93196,0.09836 -6.03431,1.33017 -9.01758,1.62557c-3.54081,0.35061 -6.89297,2.1891 -10.49773,2.37443c-10.83857,0.55726 -16.71989,-0.96176 -25.94655,-5.14375c-1.6995,-0.7703 -4.58376,-1.21746 -6.0392,-2.38474c-5.89594,-4.72862 -12.81119,-11.17358 -14.71913,-18.80532c-0.48766,-1.95064 0.48988,-4.17326 -0.40075,-6.32345c-2.05854,-4.96975 -6.49094,-15.54871 -6.49094,-20.70922c0,-4.29033 -0.02944,-8.79246 0.89198,-13.03505c0.40851,-1.88093 1.9799,-3.86157 2.20459,-5.75752c0.42346,-3.57308 0.65269,-6.49348 1.9375,-10.09095c1.86513,-5.22235 6.95505,-8.75081 10.68829,-12.46934c2.99062,-2.97885 4.66819,-7.01206 7.91406,-9.74081c5.11479,-4.29993 10.82179,-7.80019 16.74944,-10.76402c2.15394,-1.13402 4.60737,-1.77583 7.21071,-1.77583c3.54348,0 6.80924,1.18906 9.42004,3.18994c4.3497,3.13982 7.23387,8.34546 6.28485,14.47625z" fill="#000000"/><path d="M300.11559,225.537l0.86586,-0.70351l0.57399,-0.95665l7.11842,-7.11842l0.2006,-0.33717l0.37559,-0.23901l0.30539,-0.30539l3.05394,-1.83237l3.00468,-1.91207l0.40973,-0.13658l0.38174,-0.22905l0.04101,-0.003l0.62545,-0.46908l0.18428,-0.23693l0.35727,-0.16923l0.60206,-0.45154l3.16079,-1.33086l3.09941,-1.46814l0.73795,-0.14759l0.36435,-0.15341l0.29944,0.02065l1.56284,-0.31257l4.14341,-2.07171l2.26025,-0.50228l2.12337,-0.92321l6,-1l0.18463,0.01477l0.17153,-0.06988l5.16063,-0.73723l3.27485,-1.30994l2.90864,-0.39663l2.84791,-0.71198h6l1.25681,0.3142l1.29137,-0.10331l6,1l0.81825,0.35576l0.89175,0.02972l7,2l1.257,0.72519l1.41663,0.31481l1.26532,0.63266l0.16829,-0.00974l0.98889,0.58833l1.5775,0.78875l0.57116,0.48957l2.91278,1.73292l1.06925,1.68025l1.51215,1.29612l1.30357,3.12858l0.40387,0.63466l0.55773,1.67319l0.10528,0.25267l0.1949,0.22568l0.10797,0.43189l0.19315,0.3863l0.77259,3.47667l0.86379,3.45514v0.43189l0.09657,0.43458l-0.09657,0.38026v9.50653l0.09657,0.38026l-0.09657,0.43458v0.43189l-0.86379,3.45514l-0.13621,0.61297v2.68516l0.09657,0.38026l-0.09657,0.43458v0.43189l-0.86379,3.45514l-0.77259,3.47667l-0.19315,0.3863l-0.10797,0.43189l-0.03232,0.03743l-0.49297,1.97188l-0.80329,1.50617l-0.3703,1.66634l-0.63266,1.26532l0.00974,0.16829l-0.58833,0.98889l-0.78875,1.5775l-0.48957,0.57116l-1.73292,2.91278l-1.68025,1.06925l-1.29612,1.51215l-3.12858,1.30357l-0.63466,0.40387l-1.03079,0.3436l-1.27289,0.84859l-2.49804,0.89216l-2.34051,1.24827l-4,1h-1.90814l-1.85116,0.46279h-4.09186l-6.14884,1.53721h-1.90814l-1.85116,0.46279h-19l-2.09741,-0.52435l-2.16076,-0.07203l-4.91267,-1.40362h-1.82915l-1.85116,-0.46279h-1.90814l-3.68545,-0.92136c-2.63425,-0.5978 -5.01365,-1.86653 -6.94906,-3.61704l-0.41419,-0.2209l-0.00084,-0.00119l-0.12385,0.24769l-2.13065,4.97151l-1.43668,7.90172v10.42056l1.43181,0.31818l0.3863,0.19315l0.13703,0.03426l3.47667,0.77259l0.3863,0.19315l0.43189,0.10797l0.26538,0.22919l2.49992,0.83331h17.94989l3.495,-0.699l0.57781,0.02751l0.53945,-0.20882l6.8138,-0.85172l5.85056,-1.67159l2.16076,-0.07203l2.09741,-0.52435h5.81467l11.48564,-1.76702l4.65989,-0.93198l0.2563,0.0122l0.23531,-0.10231l5.38941,-0.89824l2.37893,-0.59473l4.02329,-1.60932l2.90864,-0.39663l2.84791,-0.71198h3l7.75,1.9375l5.32813,4.60156l2.42188,8.96094l-2.42187,8.96094l-5.32812,4.60156l-7.75,1.9375h-0.01497l-2.22847,0.89139l-1.05646,0.14406l-0.9408,0.50176l-4,1h-0.63175l-0.57936,0.2519l-5.75347,0.95891l-4.75492,0.95098l-0.35512,-0.01691l-0.32779,0.13767l-13,2l-1.19379,-0.11054l-1.1631,0.29077h-4.82915l-4.91267,1.40362l-1.20824,0.04027l-1.1274,0.43641l-7.43806,0.92976l-4.44468,0.88894l-1.54207,-0.07343l-1.49773,0.37443h-22l-2.41724,-0.60431l-2.48429,-0.1911l-6,-2l-0.94122,-0.59896l-1.08907,-0.24201l-0.3863,-0.19315l-0.13703,-0.03426l-0.73456,-0.16324l-0.88503,0.11063l-3.28805,-1.17431l-3.38721,-0.8468l-0.71653,-0.61882l-0.13133,-0.0469l-2.19708,-1.46472l-1.13688,-0.56844l-1.89179,-1.62153l-2.13656,-1.28193l-1.11842,-1.11842l-0.33717,-0.2006l-0.23901,-0.37559l-0.30539,-0.30539l-1.83237,-3.05394l-1.91207,-3.00468l-0.13658,-0.40973l-0.22905,-0.38174l-0.02863,-0.39129l-0.60575,-1.81724l-0.1911,-2.48429l-0.60431,-2.41724v-18l0.34171,-1.36682l-0.09169,-1.4059l2,-11l0.72366,-1.59968l0.27957,-1.73335l3,-7l0.28202,-0.37108l0.10111,-0.45498l4,-8l0.63742,-0.74365l0.32942,-0.92239l8,-12l1.14234,-1.03849l0.79429,-1.32382l3.22109,-3.22109zM326.51559,243.337l2.09741,0.52435l2.16076,0.07203l4.91267,1.40362h14.92101l6.14884,-1.53721h1.90814l1.85116,-0.46279h3.80698l0.10919,-0.07279l0.04663,-0.18651l0.53721,-1.00727v-1.98669l-0.09657,-0.38026l0.09657,-0.43458v-0.43189l0.86379,-3.45514l0.13621,-0.61297v-3.52594l-0.9141,-0.26117l-3.86872,-0.64479h-1.73215l-2.22847,0.89139l-1.84245,0.25124l-1.72207,0.70158l-6.8216,0.97451l-3.52326,0.58721l-3.91536,1.95768l-2.021,0.44911l-1.87101,0.88627l-1.55246,0.31049l-1.18734,0.89051l-2.29638,0.9669l-1.23807,0.78787l-3.34524,3.34524z" fill="#000000"/><path d="M491.89592,349.93604c6.36396,6.36396 0,12.72792 0,12.72792l0.12449,-0.37166c-1.0415,1.45722 -1.88206,3.08148 -3.12449,4.37166c-0.8905,0.92473 -2.2677,1.26991 -3.17902,2.17412c-1.31311,1.30288 -1.88331,3.33929 -3.41821,4.37168c-2.76421,1.85925 -5.86807,3.38509 -9.12873,4.06759c-1.69527,0.35484 -3.3599,-0.88777 -5.07964,-1.09357c-1.24218,-0.14865 -2.52626,0.28217 -3.75296,0.03658c-4.04718,-0.81026 -7.95949,-2.1925 -11.96623,-3.18361c-5.73541,-1.41872 -12.27868,-2.57043 -18,-4c-10.32371,-2.57956 -20.38866,-5.82015 -30.87677,-7.79676c-3.02244,-0.56962 -6.15424,0.19467 -9.22677,0.05613c-20.62472,-0.92995 -41.08999,-0.99612 -61.73564,-0.99612c-10.21057,0 -20.39626,0.62966 -30.59217,0.99075c-7.35896,0.26062 -14.64399,1.66632 -22,2c-7.4616,0.33847 -14.93856,0.01709 -22.40783,0.00925c-4.18641,-0.0044 -8.38326,0.27814 -12.55924,-0.01739c-9.56768,-0.67709 -19.03239,-2.69509 -28.61963,-2.98439c-8.74692,-0.26394 -17.50011,0.44214 -26.23431,0.98263c-15.38792,0.95224 -30.73242,2.85198 -46.08912,4.00538c-5.00471,0.37589 -10.04789,-0.42889 -15.05606,-0.10244c-2.24323,0.14622 -4.40919,1.03157 -6.65661,1.08191c-5.66667,1 -11.29423,2.25482 -17,3c-1.76634,0.23069 -3.57274,-0.27675 -5.34339,-0.08191c-1.04777,0.11529 -1.955,0.86182 -3,1c-11.747,1.55327 -24.49503,0.19013 -36.18396,-0.91445c-5.33447,-0.5041 -10.89046,0.03067 -16.25768,0.03067c-11.4216,0 -22.90937,-0.15698 -34.29344,-1.09343c-1.44005,-0.11846 -2.80411,-0.69888 -4.20986,-1.03301c-5.37842,-1.27839 -11.78098,-0.40765 -16.14251,-3.80452c-2.8261,-2.20104 -2.02406,-6.93498 -2.23798,-10.51068c-0.09168,-1.53239 0.89709,-2.93627 1.34564,-4.40441c0,0 2.84605,-8.53815 11.3842,-5.6921c4.39299,1.46433 5.77231,4.43549 6.07618,6.97528c0.7678,-0.13095 1.63738,-0.22877 2.58106,-0.31069c1.29897,-0.11277 2.49042,0.86337 3.79014,0.96699c9.05144,0.72163 18.54844,0.90856 27.70656,0.90657c7.18902,-0.00156 14.59328,-0.59683 21.74232,0.03067c5.40806,0.47468 10.82883,0.97649 16.25768,0.96933c5.18626,-0.00684 10.43644,0.93061 15.55836,0.11621c1.04102,-0.16552 1.95246,-0.88264 3,-1c2.20524,-0.24707 4.45617,0.20476 6.65661,-0.08191c5.70601,-0.74336 11.33333,-2 17,-3c1.80613,0.06313 3.54031,-0.79568 5.34339,-0.91809c5.63511,-0.38256 11.31335,0.34172 16.94394,-0.10244c15.29162,-1.20626 30.58421,-3.04453 45.91088,-3.99462c9.2437,-0.57301 18.50851,-1.29829 27.76569,-1.01737c9.84038,0.29862 19.56097,2.30732 29.38037,3.01561c5.13359,0.3703 10.29384,-0.0196 15.44076,-0.01739c23.73957,0.01016 47.24544,-3 71,-3c20.81914,0 41.46612,0.05073 62.26436,1.00388c1.54424,0.07077 9.79226,-0.11686 10.77323,0.05613c11.34318,2.00029 22.01722,5.42522 33.12323,8.20324c5.6057,1.40219 12.41456,2.58775 18,4c3.36786,0.85155 6.62724,2.13584 10.03377,2.81639c1.3883,0.27735 2.85431,-0.21758 4.24704,0.03658c0.0737,0.01345 0.15235,0.03691 0.23151,0.06872c0.56572,-1.00375 1.33335,-1.90676 2.14191,-2.72302c1.18681,-1.1981 2.89787,-1.9689 3.69649,-3.45422l2.12449,-2.37166c0,0 6.36396,-6.36396 12.72792,0z" fill="#000000"/></g></g></svg>