<svg version="1.1" xmlns="http://www.w3.org/2000/svg" xmlns:xlink="http://www.w3.org/1999/xlink" width="613.99998" height="437.1558" viewBox="0,0,613.99998,437.1558"><g transform="translate(50.38433,23.39994)"><g data-paper-data="{&quot;isPaintingLayer&quot;:true}" fill-rule="nonzero" stroke="none" stroke-linecap="butt" stroke-linejoin="miter" stroke-miterlimit="10" stroke-dasharray="" stroke-dashoffset="0" style="mix-blend-mode: normal"><path d="M-24.3844,11.60002c0,-4.59847 1.24155,-8.90696 3.40772,-12.60856l0.49853,-1.84456l2.13545,-1.84424c1.61591,-1.87802 3.50609,-3.51327 5.60838,-4.8436l0.84993,-0.73403l0.94747,-0.30147c3.45536,-1.80371 7.38485,-2.82353 11.55253,-2.82353h36l1.12891,0.11289l1.13449,-0.01022l11,1l0.63056,0.12148l0.64158,0.02711l7,1l0.28329,0.0698l0.29115,0.0191l6,1l1.88778,0.51194l1.90793,0.43083l3,1l1.61784,0.72523l1.0005,0.38115l0.11529,-0.56964l2.6776,-3.00642l2.00541,-3.4909l2.25994,-1.29826l3.01454,-3.38475l5.15754,-1.30985l2.55002,-1.46491l2.49827,0.1828l0.79982,-0.20313l3.12636,0.49041l4.9003,0.35856l1.55787,0.80579l2.12551,0.80972l1.17375,0.29344l4.41665,0.88333l1.48644,0.45503l1.51635,0.3424l2.15125,0.71708h8.94306l3.90625,0.39063l0.08301,0.02642l0.08711,0.0012l2.5764,0.58176h5.34723l3.90625,0.39063l0.08301,0.02642l0.08711,0.0012l3.82932,0.86468l3,1l1.61784,0.72523l1.6568,0.63116l0.41088,0.20544l0.46573,0.15524h0.94306l2.45121,0.24512l2.45169,0.24036l5,1l1.48644,0.45503l1.51635,0.3424l4.77652,1.59217l3.40767,0.75726l5.17351,0.47032l1.62452,0.31298l0.18846,0.00258l1.01754,0.22977l1.02432,0.19735l0.17369,0.07317l1.61377,0.3644l5.78866,1.92955l15.61962,0.82209l0.31728,0.04868l8.4625,-2.69261l3.90625,-0.39062h34l0.88855,0.08885l0.89262,-0.02532l2.59451,0.18532l0.47538,-0.05282l12.3367,-1.76238l6.74885,-1.68721l1.92359,-0.2815l0.23355,-0.07432l0.86604,-0.0866l0.86118,-0.12603l0.2446,0.01545l1.9165,-0.19165l0.62038,-0.15756l0.993,0.15576h0.40454l3,0.3l3,-0.3h8l0.69199,0.0692l0.69476,-0.03071l15.34541,0.85253l1.17409,-4.34414l4.02726,-3.47808l1.62568,-2.45066l2.31628,-0.95376l0.62453,-0.53937l3.01563,-0.95951l4.54332,-1.87078l1.75376,0.02403l3.1873,-0.31873h3l1.93443,0.19345l0.2446,-0.01545l0.86118,0.12603l0.86604,0.0866l0.23355,0.07432l1.92359,0.2815l8,2l1.33926,0.48076l1.37544,0.36457l5.6257,2.10964l14.55775,2.29859h45.44301l0.993,-0.15576l0.62038,0.15756l3.88833,0.38883l8.59375,2.73438l1.01316,0.875h0.3554l2.28346,-0.97862l2.24408,-0.70704l0.25662,-0.12394l0.62735,-0.15456l0.61624,-0.19416l0.28365,-0.02755l2.28451,-0.56285l7,-1l0.52898,-0.02235l0.51896,-0.10485l10,-1h1.24689l0.06905,-0.0069l0.20357,-0.04596l0.90469,-0.32476l4,-1l1.92359,-0.2815l0.23355,-0.07432l0.86604,-0.0866l0.86118,-0.12603l0.2446,0.01545l1.93443,-0.19345h3l3.90625,0.39063l8.59375,2.73438l0.42702,0.36879l1.5261,0.41246l3.07737,3.56327l3.56326,3.07736l0.41246,1.5261l0.36879,0.42702l2.73438,8.59375l0.39063,3.90625v11l-0.2052,2.05208l-0.13495,2.0579l-1,6l-0.55553,2.04852l-0.02951,0.26674l-0.24103,0.73086l-0.20142,0.74275l-0.1223,0.23888l-0.66476,2.01573l-3.50985,7.89715l-1.33544,4.00633v3.94306l-0.17641,1.76416l-0.07485,1.77137l-0.19681,1.37767l0.05744,0.18055l0.39063,3.90625v18.23026l0.25357,0.70635l1.43772,5.75089l1.06694,2.80071l0.28788,1.83527l0.56327,1.77026l0.39063,3.90625v0.40454l0.15577,0.993l-0.15577,0.61332v3.80016l2.61959,14.84434l0.07038,0.93649l0.18597,0.92055l1,10v2.10432l0.06483,2.10333l-0.76245,11.05557l0.10647,0.01246l1.49885,1.12641l3.6695,0.99176l4.34553,5.03166l2.45476,1.84479l0.57197,1.65986l0.04961,0.05745l0.35918,1.12885l2.71863,7.88936l-0.12658,1.74405l0.17377,1.73774v13.86597l0.63464,6.98099l1.08245,3.24734l0.43082,1.90794l0.51194,1.88778l0.67753,4.06516l0.37971,1.13913l0.86469,3.82933l0.00119,0.0871l0.02641,0.08302l0.39063,3.90625v35l-0.15468,1.54681l-0.03837,1.55406l-1,8l-0.20319,0.89177l-0.08924,0.91027l-0.8636,4.31797l0.95219,-0.26097l1.88509,-0.71813l0.43729,-0.0686l2.13344,-0.87848l3.18841,0.04368l3.15019,-0.49415l2.23624,0.56794l0.44259,0.00606l3.82932,0.86469l2.69869,0.89956l1.79881,0.45684l0.46682,0.52416l0.95863,0.42973l1.67136,0.53179l3.71857,3.2115l2.55745,1.8639l0.42192,0.70919l1.8958,1.63729l0.76729,2.83898l2.72073,4.57313l-0.26177,4.52498l0.68,2.51603l-1.0504,3.88648l-0.23252,4.01921l-1.44075,2.17188l-1.18259,4.37555l-4.02725,3.47809l-1.62568,2.45065l-2.31627,0.95376l-0.62454,0.53938l-3.01562,0.95952l-4.54332,1.87077l-1.75376,-0.02402l-1.2005,0.12005l-1.58332,0.90476l-1.58221,0.70558l-1.5365,0.80026l-3.14009,1.25604l-8.28229,4.96937l-1.38163,0.65172l-1.3273,0.75625l-5.65933,2.51526l-4.22435,3.62086l-1.23697,0.86263l-1.16531,0.95722l-3,2l-2.14747,1.14084l-0.23207,0.16914l-0.55257,0.2477l-0.53476,0.28409l-0.27599,0.07934l-2.21895,0.99471l-6,2l-0.53137,0.11998l-0.50629,0.20103l-4.86365,1.38961l-1.48084,0.56413l-1.34899,0.60471l-0.30705,0.2047l-0.97204,0.51639l-1.64018,1.34197l-0.25529,0.34038v1.52452l0.2951,1.47548h8.7049l3.90625,0.39063l0.08301,0.02641l0.08711,0.00119l3.82932,0.86469l1.26782,0.4226l0.6478,0.04092l1.02148,0.51551l0.0629,0.02096l3.58227,1.60584l0.94943,0.69196l4.52115,2.2817l0.95297,1.70791l0.86451,0.63007l5.80575,9.75859l-0.46092,7.96737l-0.15151,7.97924l-6.53709,9.28457l-0.9103,0.56191l-1.08114,1.62979l-4.68284,1.92822l-0.9997,0.6171l-3.69488,1.32637l-0.06432,0.01608l-1.05801,0.43565l-0.64903,-0.00889l-2.22864,0.55716l-3.88436,0.56844l-1.19074,-0.0752l-1.18095,0.16992l-3.91732,-0.25687l-2.27076,-0.37846l-0.44058,-0.02783l-0.13492,-0.06809l-3.15374,-0.52562l-0.55587,-0.15075l-0.57238,-0.06404l-2.07695,-0.44506h-6.68482l-3.90625,-0.39062l-8.59375,-2.73437l-0.42702,-0.36879l-1.52611,-0.41246l-0.37928,-0.43917l-4.9361,-0.92552l-15.93601,-1.87482l-9.78308,-0.97831l-0.24309,-0.04911l-0.24795,-0.0049l-25,-3l-0.1608,-0.0358l-0.16465,-0.00542l-30,-4l-0.24546,-0.05805l-0.25188,-0.01335l-12.0662,-1.85634l1.96138,1.69392l0.6086,2.2518l3.62811,8.70747l-0.54582,2.697l0.21536,0.79685l-1.49939,5.54774l-1.13993,5.6326l-0.54899,0.61641l-0.71794,2.65638l-7.13918,6.16566l-1.55138,1.74189l-7.0838,1.79906l-1.41314,0.44963l-0.58936,0.05893l-1.91935,0.48746l-1.1505,-0.18047l-0.24705,0.0247h-6l-1.93443,-0.19344l-0.2446,0.01544l-0.86118,-0.12603l-0.86604,-0.0866l-0.23355,-0.07431l-1.92359,-0.2815l-6.53545,-1.63387l-6.50203,-0.81275l-0.21468,-0.04891l-0.21999,-0.0093l-26.7808,-3.82583l-44.76959,-1.94651l-0.6732,-0.09701l-0.68015,0.00132l-48.57484,-4.76224l-48.80758,-0.11797l-0.58932,-0.06037l-0.59166,0.0296l-40.23872,-2.00058l-1.94918,-0.29329l-1.95967,-0.21213l-38,-8l-2.17878,-0.69112l-2.1897,-0.65568l-12.82923,-5.28262l-0.83071,0.41924l-2.24178,0.14159l-0.67328,0.21422l-3.90625,0.39063h-2l-3.90625,-0.39062l-0.08301,-0.02641l-0.08711,-0.00119l-3.82932,-0.86469l-3,-1l-0.75761,-0.33962l-0.96582,-0.07067l-1.61952,-0.83768l-1.50962,-0.54192l-1.60247,-0.98918l-4.60363,3.5806l-2.0353,0.13568l-0.09464,0.06279l-6.40605,0.37059l-6.40254,0.42684l-0.1017,-0.05056l-1.55685,0.09006l-3.83609,0.60174l-2.88782,-0.73341l-2.75565,0.15942l-2.52007,-1.49929l-2.84211,-0.7218l-1.83581,-2.06126l-2.5606,-1.52339l-5.31164,-7.28806l-0.02486,-0.05546l-0.22458,-0.25216l-0.0918,-0.45362l-1.2646,-2.82103l-4,-12l-0.03332,-0.14754l-0.06021,-0.13876l-8,-25l-0.16903,-0.79293l-0.27392,-0.76308l-4,-16l-0.2815,-1.92359l-0.07431,-0.23355l-0.0866,-0.86604l-0.12602,-0.86118l0.01545,-0.2446l-0.19345,-1.93443v-17l0.24513,-2.45121l0.24036,-2.45168l4,-20l0.56887,-1.85832l0.48707,-1.88141l6.28042,-17.04686l0.19035,-6.09138l0.12339,-0.9372l0.00668,-0.94526l1.1852,-11.06191l-0.32747,-3.27476v-9l0.09564,-0.95645l-0.02201,-0.96097l2,-26l0.30113,-1.68895l0.19582,-1.70437l0.13994,-0.64374l0.30211,-7.85479l0.99601,-37.84839l0.08427,-0.66539l-0.01331,-0.67057l1.92038,-24.00478v-43.99073l-0.15576,-0.61332l0.15576,-0.993v-0.40454l0.39063,-3.90625l0.56327,-1.77027l0.03644,-0.23228l-0.32079,-1.58506l2.49559,-5.98941l0.95987,-3.01673l0.57407,-0.6647l0.3378,-0.81072l1.94736,-1.89474l3.65509,-7.31018l2.09632,-3.31916l2.18414,-2.24481c-0.66062,-0.61834 -1.28766,-1.27212 -1.87808,-1.95832l-2.13545,-1.84425l-0.49853,-1.84456c-2.16617,-3.7016 -3.40772,-8.01009 -3.40772,-12.60857z" fill="#000000" stroke-width="0.5"/><text transform="translate(64.88895,203.76876) scale(2.06013,2.06013)" font-size="40" xml:space="preserve" fill="#ffffff" fill-rule="nonzero" stroke="none" stroke-width="1" stroke-linecap="butt" stroke-linejoin="miter" stroke-miterlimit="10" stroke-dasharray="" stroke-dashoffset="0" font-family="Pixel" font-weight="normal" text-anchor="start" style="mix-blend-mode: normal"><tspan x="0" dy="0">6:00 AM</tspan></text><text transform="translate(151.6156,232.60002) scale(0.5,0.5)" font-size="40" xml:space="preserve" fill="#ffffff" fill-rule="nonzero" stroke="none" stroke-width="1" stroke-linecap="butt" stroke-linejoin="miter" stroke-miterlimit="10" stroke-dasharray="" stroke-dashoffset="0" font-family="Pixel" font-weight="normal" text-anchor="start" style="mix-blend-mode: normal"><tspan x="0" dy="0">Time to go home?</tspan></text></g></g></svg>