<svg version="1.1" xmlns="http://www.w3.org/2000/svg" xmlns:xlink="http://www.w3.org/1999/xlink" width="538.09658" height="408.20483" viewBox="0,0,538.09658,408.20483"><g transform="translate(33.08102,24.66302)"><g data-paper-data="{&quot;isPaintingLayer&quot;:true}" fill="#000000" fill-rule="nonzero" stroke="none" stroke-width="0.5" stroke-linecap="butt" stroke-linejoin="miter" stroke-miterlimit="10" stroke-dasharray="" stroke-dashoffset="0" style="mix-blend-mode: normal"><path d="M-16.98441,-1.163c0,-0.13648 0.00176,-0.27254 0.00527,-0.40818l-0.10184,-0.4583l0.17279,-0.68037c0.15571,-1.57154 0.54614,-3.07406 1.13575,-4.47201l0.42441,-1.67112l0.88677,-0.78978c2.76813,-4.22755 7.54636,-7.02024 12.97685,-7.02024c0.33516,0 0.66784,0.01064 0.99771,0.03159l1.16848,-0.23648l1.59373,0.66406c1.52286,0.37946 2.95663,0.98414 4.26388,1.77662l0.64096,0.26706l0.30248,0.3529c1.89251,1.34459 3.47013,3.10341 4.60067,5.14425h31.40331l13.82585,-1.84345l12.84605,-1.97632l0.48946,0.04532l0.46412,-0.1619l9.64126,-0.87648l9.68373,-2.64102l2.06983,-0.04404l2.00849,-0.50212h3.44713l12.10262,-0.86447l2.69094,-0.67274h1.05687l0.99074,-0.36799l9,-1l0.86494,0.11688l0.84675,-0.21169h11.35528l11.35751,-0.94646l0.64912,0.10598l0.63808,-0.15952h9.09186l10.14884,-2.53721h1.26992l1.20217,-0.40925l12,-1l0.64912,0.10598l0.63808,-0.15952h40l2.1944,0.5486l2.25949,0.10509l8.88772,2.66632l12.85042,1.83577l0.40786,0.16616l0.43991,-0.02095l5,1l0.57855,0.27405l0.63982,0.02133l4.91267,1.40362h7.82915l2.41724,0.60431l2.48429,0.1911l4.84626,1.61542l3.53503,0.58917h13.71718l0.95021,0.23755l0.97233,-0.11786l7.04246,0.88031h17.035l7.75,1.9375l2.64359,2.2831l0.05823,-0.0097l1.29137,0.10331l1.25681,-0.3142h92.64284l15.49006,-2.73354l13.24476,-2.64895l4.20858,-1.80368l1.81592,-1.21061l0.92239,-0.32942l0.74365,-0.63742l3.62269,-1.81135l0.34818,-0.40316l0.99711,-0.26949l1.03201,-0.51601l4.93431,-1.09651l1.9975,-0.53987l0.19488,0.05267l0.6716,-0.14924l6.8235,1.73295l0.51845,0.58211l0.75251,0.20338l4.60156,5.32813l0.16686,0.66744l0.13426,0.15075l0.41044,2.02806l1.22594,4.90375v1.15382l0.20488,1.01237l-0.20488,0.49172v13.82678l0.20459,0.61377l0.1911,2.48429l0.60431,2.41724v6.93189l0.13621,0.61297l0.86379,3.45514v0.43189l0.09657,0.43458l-0.09657,0.38026v28.53023l0.20459,0.3215l1,3l0.1911,2.48429l0.60431,2.41724v16.17763l0.0625,0.07237l0.10797,0.43189l0.19315,0.3863l0.77259,3.47667l0.86379,3.45514v0.43189l0.09657,0.43458l-0.09657,0.38026v4.26824l1.89139,4.72847l0.14406,1.05646l0.50176,0.9408l0.85562,3.4225l0.81176,2.43527l0.1911,2.48429l0.60431,2.41724v17l-0.60431,2.41724l-0.1911,2.48429l-0.20459,0.61377v1.4847l-0.46279,1.85116v1.90814l-1,4l-0.80329,1.50617l-0.3703,1.66634l-1.00888,2.01776l-0.15015,1.95196l-0.71989,2.15968l-0.34848,1.39393l-0.77259,3.47667l-0.19315,0.3863l-0.10797,0.43189l-0.0625,0.07237v5.10952l0.13621,0.61297l0.86379,3.45514v0.43189l0.09657,0.43458l-0.05926,0.23333l0.0989,0.44505l0.86379,3.45514v0.43189l0.09657,0.43458l-0.09657,0.38026v4.23796l0.20459,0.61377l0.04661,0.60597l0.286,0.53626l1,4v1.90814l0.46279,1.85116v29l-0.60431,2.41724l-0.1911,2.48429l-0.20459,0.61377v10.41659l0.13621,0.61297l0.86379,3.45514v0.43189l0.09657,0.43458l-0.09657,0.38026v1.68516l0.13621,0.61297l0.86379,3.45514v0.43189l0.09657,0.43458l-0.09657,0.38026v3.23796l0.20459,0.61377l0.1911,2.48429l0.60431,2.41724v0.09186l0.53721,2.14884v1.90814l0.46279,1.85116v26l-0.46279,1.85116v1.90814l-0.53721,2.14884v3.09186l-0.60431,2.41724l-0.1911,2.48429l-0.16939,0.50817l-0.0352,0.15841v0.43189l-0.86379,3.45514l-0.77259,3.47667l-0.19315,0.3863l-0.10797,0.43189l-0.25644,0.29693l-1.63559,3.27118l-0.03426,0.13703l-0.77259,3.47667l-0.19315,0.3863l-0.10797,0.43189l-0.25644,0.29693l-0.15412,0.30823l-1.61041,4.02602l-0.04154,0.18693v0.43189l-0.86379,3.45514l-0.77259,3.47667l-0.19315,0.3863l-0.10797,0.43189l-0.25644,0.29693l-1.51415,3.02829l-0.29192,1.45958v5.4652l-0.60431,2.41724l-0.1911,2.48429l-1,3l-0.59896,0.94122l-0.24201,1.08907l-1.19315,2.3863l-1.10797,4.43189l-0.22865,0.26475l-0.25573,0.94619l-2.20922,1.90796l-1.90796,2.20922l-0.94619,0.25573l-0.26475,0.22865l-3.55556,0.88889l-2.44444,2.11111l-0.51852,0.12963l-2.82531,2.44004l-0.7414,0.86497l-0.50265,0.20944l-0.41212,0.35592l-0.96296,0.24074l-0.38087,0.32893l-0.7414,0.86497l-0.50265,0.20944l-0.41212,0.35592l-1.10522,0.27631l-4.47859,1.86608l-1.65001,-0.33393l-0.51618,0.12905h-2l-2.41724,-0.60431l-2.48429,-0.1911l-3,-1l-0.94122,-0.59896l-1.08907,-0.24201l-0.01776,-0.00888l-1.95196,-0.15015l-3,-1l-0.94122,-0.59896l-1.08907,-0.24201l-0.72724,-0.36362h-3.80614l-3.495,0.699l-1.54207,-0.07343l-1.49773,0.37443h-7.71718l-4.73463,0.78911l-1.29137,-0.10331l-1.25681,0.3142h-16l-1.25681,-0.3142l-1.29137,0.10331l-6,-1l-0.23531,-0.10231l-0.2563,0.0122l-4.57813,-0.91563l-5.48362,-0.78337h-5.89845l-0.51183,-0.12796l-0.51921,0.09363l-14.48505,-0.96567h-16.20109l-4.3254,0.7209l-7.81445,1.73654l-1.12759,0.37586l-0.26538,0.22919l-0.43189,0.10797l-0.3863,0.19315l-3.47667,0.77259l-3.45514,0.86379h-0.43189l-0.43458,0.09657l-0.38026,-0.09657h-3.21846l-3.495,0.699l-1.54207,-0.07343l-1.49773,0.37443h-20l-1.49773,-0.37443l-1.54207,0.07343l-3.495,-0.699h-19.4652l-0.95021,-0.23755l-0.97233,0.11786l-8,-1l-0.53945,-0.20882l-0.57781,0.02751l-3.495,-0.699h-2.4652l-1.85116,-0.46279h-1.90814l-2.14884,-0.53721h-1.57656l-3.61377,1.20459l-1.22584,0.0943l-1.1275,0.49022l-6,1l-1.29137,-0.10331l-1.25681,0.3142h-78.4652l-3.495,0.699l-1.54207,-0.07343l-1.49773,0.37443h-5.4847l-3.61377,1.20459l-0.60597,0.04661l-0.53626,0.286l-4,1h-1.90814l-1.85116,0.46279h-1.71718l-4.73463,0.78911l-1.29137,-0.10331l-1.25681,0.3142h-12l-1.85116,-0.46279h-1.90814l-2.14884,-0.53721h-23.49659l-11.72313,0.90178l-4.91472,0.81912l-8.595,1.91l-1.7064,-0.04491l-1.65602,0.41401h-20l-1.85116,-0.46279h-1.90814l-0.42532,-0.10633l-1.85444,2.14725l-1.62515,0.43923l-0.40398,0.34627l-2,1l-7.79829,1.73295l-0.33906,-0.08611l-0.96066,0.19442l-2.69453,-1.12272l-2.82926,-0.71854l-0.65188,-0.73193l-0.32291,-0.13455l-4.44959,-5.19119l-0.60397,-0.60397l-0.55958,-0.39399l-1.81164,-3.39682l-1.98067,-3.30112l-0.04994,-0.68254l-0.41002,-1.64009l-0.03232,-0.03743l-0.10797,-0.43189l-0.19315,-0.3863l-0.77259,-3.47667l-0.03426,-0.13703l-0.19315,-0.3863l-0.24201,-1.08907l-0.59896,-0.94122l-0.65166,-1.95498l-0.94981,-1.89963l-0.25644,-0.29693l-0.10797,-0.43189l-0.19315,-0.3863l-0.77259,-3.47667l-0.34848,-1.39393l-0.34861,-1.04583l-0.22919,-0.26538l-0.10797,-0.43189l-0.19315,-0.3863l-0.77259,-3.47667l-0.86379,-3.45514v-0.43189l-0.09657,-0.43458l0.09657,-0.38026v-7.50653l-0.09657,-0.38026l0.09657,-0.43458v-0.43189l0.86379,-3.45514l0.59901,-2.69553v-1.60863l0.53721,-2.14884v-41.02376l-0.13621,-0.61297l-0.86379,-3.45514v-0.43189l-0.09657,-0.43458l0.09657,-0.38026v-0.68516l-0.13621,-0.61297l-0.86379,-3.45514v-0.43189l-0.0352,-0.15841l-0.16939,-0.50817l-0.14224,-1.84918l-2.28534,-2.64618l-0.86497,-0.7414l-0.20944,-0.50265l-0.35592,-0.41212l-0.27631,-1.10522l-1.86608,-4.47859l0.11025,-0.54474l-0.07584,-0.30334l-0.19315,-0.3863l-0.77259,-3.47667l-0.86379,-3.45514v-0.43189l-0.09657,-0.43458l0.09657,-0.38026v-4.50653l-0.09657,-0.38026l0.09657,-0.43458v-0.43189l0.86379,-3.45514l0.77259,-3.47667l0.19315,-0.3863l0.03426,-0.13703l0.13621,-0.61297v-9.93189l0.46279,-1.85116v-1.90814l0.53721,-2.14884v-4.84513l-0.09657,-0.38026l0.09657,-0.43458v-0.43189l0.86379,-3.45514l0.77259,-3.47667l0.19315,-0.3863l0.10797,-0.43189l0.0625,-0.07237v-10.17763l0.60431,-2.41724l0.1911,-2.48429l0.81176,-2.43527l0.76617,-3.06467l0.87865,-4.39324l0.95891,-5.75347l0.10231,-0.23531l-0.0122,-0.2563l1,-5l1.06663,-2.25178l0.6746,-2.39857l2.93915,-5.14352l1.48141,-5.92563l0.286,-0.53626l0.04661,-0.60597l1.76712,-5.30136l0.15332,-0.6644l0.07956,-1.03424l0.51712,-1.55136l2.03316,-8.81037l0.65431,-3.27154v-9.17228l-1.36648,0.30366l-0.33906,-0.08611l-0.96066,0.19442l-2.69453,-1.12272l-2.82926,-0.71854l-0.65188,-0.73193l-0.32291,-0.13455l-5.19886,-6.06533l-0.87512,-1.75024l-0.22141,-0.22141l-0.38704,-0.64506l-2.21531,-2.56509l-0.48304,-1.93215l-1.02468,-1.70779l-0.21521,-2.94115l-0.75179,-1.4096l-0.85562,-3.4225l-0.46342,-1.39025l-0.50737,-1.01474l-0.3703,-1.66634l-0.80329,-1.50617l-0.49297,-1.97188l-0.03232,-0.03743l-0.10797,-0.43189l-0.19315,-0.3863l-0.77259,-3.47667l-0.86379,-3.45514v-0.43189l-0.09657,-0.43458l0.09657,-0.38026v-13.75326l0.60431,-2.41724l0.1911,-2.48429l0.71989,-2.15968l0.34848,-1.39393l0.77259,-3.47667l0.19315,-0.3863l0.10797,-0.43189l0.25644,-0.29693l0.44244,-0.88488l0.63742,-0.74365l0.32942,-0.92239l1.46472,-2.19708l0.07581,-0.15162l1.65166,-4.95498l0.59896,-0.94122l0.24201,-1.08907l1.82641,-3.65283v-1.17467l1,-4l0.50176,-0.9408l0.14406,-1.05646l1.83084,-4.57709l0.66772,-2.00316l0.85562,-3.4225l0.0663,-0.12432l-0.07463,-0.29853l-1.02468,-1.70779l-0.24734,-3.38025l-0.18245,-0.7298v-1.76369l-0.08397,-1.1476l0.08397,-0.14617v-0.94254l0.41566,-1.66265l-0.15636,-2.70277l1.4351,-2.41219l0.2431,-0.97239l0.19368,-0.22426c-0.08654,-0.66299 -0.13118,-1.33915 -0.13118,-2.02574z"/></g></g></svg>